<svg width="16" height="16" viewBox="0 0 16 16" fill="none" xmlns="http://www.w3.org/2000/svg">
<g id="proicons:cube">
<path id="Vector" d="M7.99992 7.99993L13.3819 4.9166M7.99992 7.99993L2.61725 4.9166M7.99992 7.99993V14.1666M13.3819 4.9166C13.1952 4.59598 12.9273 4.33019 12.6053 4.14593L9.06125 2.11526C8.73822 1.93 8.37231 1.83252 7.99992 1.83252C7.62753 1.83252 7.26162 1.93 6.93859 2.11526L3.39459 4.1466C3.06592 4.3346 2.80125 4.60193 2.61725 4.9166M13.3819 4.9166C13.5653 5.23126 13.6666 5.59393 13.6666 5.9706V10.0306C13.6664 10.4012 13.5681 10.7652 13.3817 11.0856C13.1953 11.406 12.9274 11.6713 12.6053 11.8546L9.06125 13.8853C8.73808 14.07 8.37218 14.167 7.99992 14.1666M2.61725 4.9166C2.43115 5.23643 2.33316 5.59989 2.33325 5.96993V10.0299C2.33325 10.7833 2.73792 11.4779 3.39459 11.8539L6.93859 13.8846C7.26169 14.0696 7.62759 14.1668 7.99992 14.1666" stroke="#6040FF" stroke-linejoin="round"/>
</g>
</svg>
