<svg width="16" height="16" viewBox="0 0 16 16" fill="none" xmlns="http://www.w3.org/2000/svg">
<g id="fe:prototype">
<path id="Vector" fill-rule="evenodd" clip-rule="evenodd" d="M6.00003 8H4.48803C4.34128 8.25419 4.11475 8.45285 3.84358 8.56517C3.57241 8.6775 3.27175 8.6972 2.98824 8.62123C2.70473 8.54527 2.45421 8.37787 2.27553 8.14502C2.09685 7.91216 2 7.62685 2 7.33333C2 7.03982 2.09685 6.75451 2.27553 6.52165C2.45421 6.28879 2.70473 6.1214 2.98824 6.04543C3.27175 5.96947 3.57241 5.98917 3.84358 6.10149C4.11475 6.21382 4.34128 6.41248 4.48803 6.66667H6.00003V3.33333C6.00003 2.97971 6.14051 2.64057 6.39056 2.39052C6.64061 2.14048 6.97975 2 7.33337 2H12.6667C13.0203 2 13.3595 2.14048 13.6095 2.39052C13.8596 2.64057 14 2.97971 14 3.33333V12.6667C14 13.0203 13.8596 13.3594 13.6095 13.6095C13.3595 13.8595 13.0203 14 12.6667 14H7.33337C6.97975 14 6.64061 13.8595 6.39056 13.6095C6.14051 13.3594 6.00003 13.0203 6.00003 12.6667V8ZM7.33337 8V12.6667H12.6667V3.33333H7.33337V6.66667H8.84537C8.99212 6.41248 9.21865 6.21382 9.48982 6.10149C9.76099 5.98917 10.0616 5.96947 10.3452 6.04543C10.6287 6.1214 10.8792 6.28879 11.0579 6.52165C11.2366 6.75451 11.3334 7.03982 11.3334 7.33333C11.3334 7.62685 11.2366 7.91216 11.0579 8.14502C10.8792 8.37787 10.6287 8.54527 10.3452 8.62123C10.0616 8.6972 9.76099 8.6775 9.48982 8.56517C9.21865 8.45285 8.99212 8.25419 8.84537 8H7.33337Z" fill="#6040FF"/>
</g>
</svg>
