<svg width="16" height="16" viewBox="0 0 16 16" fill="none" xmlns="http://www.w3.org/2000/svg">
<g id="gg:ui-kit" clip-path="url(#clip0_10810_2228)">
<g id="Group">
<path id="Vector" fill-rule="evenodd" clip-rule="evenodd" d="M9.33341 3.99984H6.66675C6.48994 3.99984 6.32037 4.07008 6.19534 4.1951C6.07032 4.32012 6.00008 4.48969 6.00008 4.6665V11.3332C6.00008 11.51 6.07032 11.6796 6.19534 11.8046C6.32037 11.9296 6.48994 11.9998 6.66675 11.9998H9.33341C9.51023 11.9998 9.67979 11.9296 9.80482 11.8046C9.92984 11.6796 10.0001 11.51 10.0001 11.3332V4.6665C10.0001 4.48969 9.92984 4.32012 9.80482 4.1951C9.67979 4.07008 9.51023 3.99984 9.33341 3.99984ZM6.66675 2.6665C6.13631 2.6665 5.62761 2.87722 5.25253 3.25229C4.87746 3.62736 4.66675 4.13607 4.66675 4.6665V11.3332C4.66675 11.8636 4.87746 12.3723 5.25253 12.7474C5.62761 13.1225 6.13631 13.3332 6.66675 13.3332H9.33341C9.86385 13.3332 10.3726 13.1225 10.7476 12.7474C11.1227 12.3723 11.3334 11.8636 11.3334 11.3332V4.6665C11.3334 4.13607 11.1227 3.62736 10.7476 3.25229C10.3726 2.87722 9.86385 2.6665 9.33341 2.6665H6.66675Z" fill="#6040FF"/>
<path id="Vector_2" d="M4 4.97334L2.32867 4.69467C2.04223 4.64695 1.74884 4.66218 1.46888 4.73929C1.18892 4.81641 0.92911 4.95356 0.707508 5.14122C0.485907 5.32888 0.307828 5.56255 0.185648 5.82598C0.0634678 6.08941 0.000117631 6.37629 6.85531e-08 6.66667V9.94467C-7.59862e-05 10.2352 0.0631319 10.5222 0.185227 10.7858C0.307323 11.0494 0.485375 11.2832 0.707 11.471C0.928624 11.6588 1.1885 11.7961 1.46856 11.8733C1.74861 11.9505 2.04212 11.9657 2.32867 11.918L4 11.6387V10.2873L2.10933 10.602C2.01393 10.6179 1.91621 10.6128 1.82297 10.5871C1.72972 10.5614 1.64318 10.5157 1.56935 10.4533C1.49552 10.3908 1.43617 10.313 1.39541 10.2253C1.35466 10.1376 1.33347 10.0421 1.33333 9.94534V6.66734C1.33328 6.57051 1.35432 6.47483 1.39499 6.38696C1.43567 6.29908 1.49499 6.22112 1.56884 6.1585C1.6427 6.09588 1.7293 6.05009 1.82264 6.02434C1.91598 5.99858 2.01382 5.99346 2.10933 6.00934L4 6.32467V4.97334ZM12 4.97334L13.6713 4.69467C13.9578 4.64695 14.2512 4.66218 14.5311 4.73929C14.8111 4.81641 15.0709 4.95356 15.2925 5.14122C15.5141 5.32888 15.6922 5.56255 15.8144 5.82598C15.9365 6.08941 15.9999 6.37629 16 6.66667V9.94467C16.0001 10.2352 15.9369 10.5222 15.8148 10.7858C15.6927 11.0494 15.5146 11.2832 15.293 11.471C15.0714 11.6588 14.8115 11.7961 14.5314 11.8733C14.2514 11.9505 13.9579 11.9657 13.6713 11.918L12 11.6387V10.2873L13.8907 10.602C13.9861 10.6179 14.0838 10.6128 14.177 10.5871C14.2703 10.5614 14.3568 10.5157 14.4306 10.4533C14.5045 10.3908 14.5638 10.313 14.6046 10.2253C14.6453 10.1376 14.6665 10.0421 14.6667 9.94534V6.66734C14.6667 6.57051 14.6457 6.47483 14.605 6.38696C14.5643 6.29908 14.505 6.22112 14.4312 6.1585C14.3573 6.09588 14.2707 6.05009 14.1774 6.02434C14.084 5.99858 13.9862 5.99346 13.8907 6.00934L12 6.32467V4.97334Z" fill="#6040FF"/>
</g>
</g>
<defs>
<clipPath id="clip0_10810_2228">
<rect width="16" height="16" fill="white"/>
</clipPath>
</defs>
</svg>
