<svg width="16" height="16" viewBox="0 0 16 16" fill="none" xmlns="http://www.w3.org/2000/svg">
<g id="fluent:arrow-growth-20-filled">
<path id="Vector" d="M11.2 2.2001C11.2 2.04097 11.2632 1.88836 11.3757 1.77583C11.4882 1.66331 11.6408 1.6001 11.8 1.6001H13.8C13.9591 1.6001 14.1117 1.66331 14.2242 1.77583C14.3368 1.88836 14.4 2.04097 14.4 2.2001V4.2001C14.4 4.35923 14.3368 4.51184 14.2242 4.62436C14.1117 4.73688 13.9591 4.8001 13.8 4.8001C13.6408 4.8001 13.4882 4.73688 13.3757 4.62436C13.2632 4.51184 13.2 4.35923 13.2 4.2001V3.6481L9.62398 7.2241C9.51148 7.33646 9.35898 7.39957 9.19998 7.39957C9.04098 7.39957 8.88848 7.33646 8.77598 7.2241L6.79998 5.2481L3.42398 8.6241C3.36905 8.68305 3.30281 8.73033 3.22921 8.76312C3.15561 8.79592 3.07616 8.81355 2.99559 8.81497C2.91503 8.81639 2.83501 8.80157 2.7603 8.7714C2.68559 8.74122 2.61772 8.6963 2.56075 8.63933C2.50377 8.58235 2.45886 8.51449 2.42868 8.43978C2.3985 8.36507 2.38368 8.28504 2.3851 8.20448C2.38652 8.12392 2.40416 8.04447 2.43695 7.97087C2.46975 7.89727 2.51703 7.83103 2.57598 7.7761L6.37598 3.9761C6.48848 3.86374 6.64098 3.80063 6.79998 3.80063C6.95898 3.80063 7.11148 3.86374 7.22398 3.9761L9.19998 5.9521L12.352 2.8001H11.8C11.6408 2.8001 11.4882 2.73688 11.3757 2.62436C11.2632 2.51184 11.2 2.35923 11.2 2.2001ZM2.99998 11.2001C3.15911 11.2001 3.31172 11.2633 3.42424 11.3758C3.53676 11.4884 3.59998 11.641 3.59998 11.8001V13.8001C3.59998 13.9592 3.53676 14.1118 3.42424 14.2244C3.31172 14.3369 3.15911 14.4001 2.99998 14.4001C2.84085 14.4001 2.68823 14.3369 2.57571 14.2244C2.46319 14.1118 2.39998 13.9592 2.39998 13.8001V11.8001C2.39998 11.641 2.46319 11.4884 2.57571 11.3758C2.68823 11.2633 2.84085 11.2001 2.99998 11.2001ZM6.79998 9.4001C6.79998 9.24097 6.73676 9.08836 6.62424 8.97583C6.51172 8.86331 6.35911 8.8001 6.19998 8.8001C6.04085 8.8001 5.88823 8.86331 5.77571 8.97583C5.66319 9.08836 5.59998 9.24097 5.59998 9.4001V13.8001C5.59998 13.9592 5.66319 14.1118 5.77571 14.2244C5.88823 14.3369 6.04085 14.4001 6.19998 14.4001C6.35911 14.4001 6.51172 14.3369 6.62424 14.2244C6.73676 14.1118 6.79998 13.9592 6.79998 13.8001V9.4001ZM9.39998 10.4001C9.55911 10.4001 9.71172 10.4633 9.82424 10.5758C9.93676 10.6884 9.99998 10.841 9.99998 11.0001V13.8001C9.99998 13.9592 9.93676 14.1118 9.82424 14.2244C9.71172 14.3369 9.55911 14.4001 9.39998 14.4001C9.24085 14.4001 9.08823 14.3369 8.97571 14.2244C8.86319 14.1118 8.79998 13.9592 8.79998 13.8001V11.0001C8.79998 10.841 8.86319 10.6884 8.97571 10.5758C9.08823 10.4633 9.24085 10.4001 9.39998 10.4001ZM13.2 7.8001C13.2 7.64097 13.1368 7.48836 13.0242 7.37583C12.9117 7.26331 12.7591 7.2001 12.6 7.2001C12.4408 7.2001 12.2882 7.26331 12.1757 7.37583C12.0632 7.48836 12 7.64097 12 7.8001V13.8001C12 13.9592 12.0632 14.1118 12.1757 14.2244C12.2882 14.3369 12.4408 14.4001 12.6 14.4001C12.7591 14.4001 12.9117 14.3369 13.0242 14.2244C13.1368 14.1118 13.2 13.9592 13.2 13.8001V7.8001Z" fill="#6040FF"/>
</g>
</svg>
