<svg width="16" height="16" viewBox="0 0 16 16" fill="none" xmlns="http://www.w3.org/2000/svg">
<g id="hugeicons:seo">
<g id="Group">
<path id="Vector" d="M3 12.6667L4.60867 11.058M4.60867 11.058C4.88379 11.3331 5.2104 11.5514 5.56986 11.7003C5.92932 11.8492 6.31459 11.9258 6.70367 11.9258C7.09274 11.9258 7.47801 11.8492 7.83747 11.7003C8.19693 11.5514 8.52355 11.3331 8.79867 11.058C9.07379 10.7829 9.29202 10.4563 9.44092 10.0968C9.58981 9.73737 9.66644 9.3521 9.66644 8.96302C9.66644 8.57394 9.58981 8.18868 9.44092 7.82922C9.29202 7.46976 9.07379 7.14314 8.79867 6.86802C8.24304 6.31239 7.48944 6.00024 6.70367 6.00024C5.91789 6.00024 5.1643 6.31239 4.60867 6.86802C4.05304 7.42365 3.74089 8.17724 3.74089 8.96302C3.74089 9.7488 4.05304 10.5024 4.60867 11.058Z" stroke="#6040FF" stroke-linecap="round" stroke-linejoin="round"/>
<path id="Vector_2" d="M1.66667 9.45867C1.22873 8.70418 0.998691 7.84705 1.00001 6.97467C1.00001 4.22733 3.23867 2 6.00001 2H9.33334C12.0947 2 14.3333 4.22733 14.3333 6.97467C14.3333 9.14133 12.942 10.984 11 11.6667" stroke="#6040FF" stroke-linecap="round" stroke-linejoin="round"/>
</g>
</g>
</svg>
