<svg width="16" height="16" viewBox="0 0 16 16" fill="none" xmlns="http://www.w3.org/2000/svg">
<g id="hugeicons:laptop-programming">
<g id="Group">
<path id="Vector" d="M13.3334 9.6665V4.33317C13.3334 3.07584 13.3334 2.44784 12.9427 2.05717C12.552 1.6665 11.924 1.6665 10.6667 1.6665H5.33337C4.07603 1.6665 3.44803 1.6665 3.05737 2.05717C2.6667 2.44784 2.6667 3.07584 2.6667 4.33317V9.6665M2.33203 10.3432L2.68003 9.6665H13.3014L13.668 10.3432C14.63 12.1178 14.87 13.0052 14.504 13.6692C14.138 14.3332 13.1694 14.3332 11.2307 14.3332H4.76937C2.83003 14.3332 1.8607 14.3332 1.49537 13.6692C1.12937 13.0052 1.36937 12.1178 2.33203 10.3432Z" stroke="#6040FF" stroke-linecap="round" stroke-linejoin="round"/>
<path id="Vector_2" d="M10.3334 4.66667L10.9467 5.19533C11.2047 5.41733 11.3334 5.52867 11.3334 5.66667C11.3334 5.80467 11.2047 5.916 10.9467 6.138L10.3334 6.66667M5.66675 4.66667L5.05341 5.19533C4.79541 5.41733 4.66675 5.52867 4.66675 5.66667C4.66675 5.80467 4.79541 5.916 5.05341 6.138L5.66675 6.66667M8.66675 4L7.33341 7.33333" stroke="#6040FF" stroke-linecap="round" stroke-linejoin="round"/>
</g>
</g>
</svg>
