<svg width="16" height="16" viewBox="0 0 16 16" fill="none" xmlns="http://www.w3.org/2000/svg">
<g id="mage:video-player">
<g id="Group">
<path id="Vector" d="M2.13062 5.24864H13.8693M10.5379 5.24864V1.91797M5.46195 5.24864V1.91797M6.75995 7.95197V11.2333C6.75995 11.3006 6.78128 11.3666 6.82061 11.424C6.86061 11.4806 6.91728 11.5266 6.98462 11.5566C7.05247 11.5863 7.12672 11.5984 7.20049 11.5918C7.27426 11.5851 7.34516 11.56 7.40661 11.5186L9.93861 9.75197C9.9878 9.7178 10.028 9.6723 10.0559 9.6193C10.0822 9.56813 10.0948 9.51102 10.0925 9.45355C10.0901 9.39607 10.073 9.34018 10.0426 9.2913C10.0098 9.24087 9.96606 9.19848 9.91461 9.1673L7.38262 7.65264C7.32069 7.61664 7.25091 7.59631 7.17935 7.59341C7.10778 7.5905 7.03659 7.60511 6.97195 7.63597C6.90988 7.66591 6.85661 7.71138 6.81728 7.76797C6.78047 7.82232 6.76053 7.88633 6.75995 7.95197Z" stroke="#6040FF" stroke-linecap="round" stroke-linejoin="round"/>
<path id="Vector_2" d="M10.1666 1.83325H5.83325C3.62411 1.83325 1.83325 3.62411 1.83325 5.83325V10.1666C1.83325 12.3757 3.62411 14.1666 5.83325 14.1666H10.1666C12.3757 14.1666 14.1666 12.3757 14.1666 10.1666V5.83325C14.1666 3.62411 12.3757 1.83325 10.1666 1.83325Z" stroke="#6040FF"/>
</g>
</g>
</svg>
