<svg width="16" height="16" viewBox="0 0 16 16" fill="none" xmlns="http://www.w3.org/2000/svg">
<g id="iconoir:send-mail">
<g id="Group">
<path id="Vector" d="M6.00008 6L9.00008 8L12.0001 6M2.00008 9H3.33341M0.666748 7H3.33341" stroke="#6040FF" stroke-linecap="round" stroke-linejoin="round"/>
<path id="Vector_2" d="M3.3335 4.99992V4.66659C3.3335 4.31296 3.47397 3.97382 3.72402 3.72378C3.97407 3.47373 4.31321 3.33325 4.66683 3.33325H13.3335C13.6871 3.33325 14.0263 3.47373 14.2763 3.72378C14.5264 3.97382 14.6668 4.31296 14.6668 4.66659V11.3333C14.6668 11.6869 14.5264 12.026 14.2763 12.2761C14.0263 12.5261 13.6871 12.6666 13.3335 12.6666H4.66683C4.31321 12.6666 3.97407 12.5261 3.72402 12.2761C3.47397 12.026 3.3335 11.6869 3.3335 11.3333V10.9999" stroke="#6040FF" stroke-linecap="round"/>
</g>
</g>
</svg>
