<svg width="16" height="16" viewBox="0 0 16 16" fill="none" xmlns="http://www.w3.org/2000/svg">
<g id="material-symbols:campaign-outline-rounded">
<path id="Vector" d="M2.00008 8.66662H3.33341C3.5223 8.66662 3.68052 8.60262 3.80808 8.47462C3.93564 8.34662 3.99964 8.1884 4.00008 7.99996C4.00053 7.81151 3.93653 7.65329 3.80808 7.52529C3.67964 7.39729 3.52141 7.33329 3.33341 7.33329H2.00008C1.81119 7.33329 1.65275 7.39729 1.52475 7.52529C1.39675 7.65329 1.33297 7.81151 1.33341 7.99996C1.33386 8.1884 1.39786 8.34685 1.52541 8.47529C1.65297 8.60373 1.81119 8.66751 2.00008 8.66662ZM4.93341 11.2C4.8223 11.0444 4.67786 10.9555 4.50008 10.9333C4.3223 10.9111 4.15564 10.9555 4.00008 11.0666L2.93341 11.8666C2.77786 11.9777 2.68897 12.1222 2.66675 12.3C2.64453 12.4777 2.68897 12.6444 2.80008 12.8C2.91119 12.9555 3.05564 13.0444 3.23341 13.0666C3.41119 13.0888 3.57786 13.0444 3.73341 12.9333L4.80008 12.1333C4.95564 12.0222 5.04453 11.8777 5.06675 11.7C5.08897 11.5222 5.04453 11.3555 4.93341 11.2ZM2.93341 4.13329L4.00008 4.93329C4.15564 5.0444 4.3223 5.08885 4.50008 5.06662C4.67786 5.0444 4.8223 4.95551 4.93341 4.79996C5.04453 4.6444 5.08897 4.47773 5.06675 4.29996C5.04453 4.12218 4.95564 3.97773 4.80008 3.86662L3.73341 3.06662C3.57786 2.95551 3.41119 2.91107 3.23341 2.93329C3.05564 2.95551 2.91119 3.0444 2.80008 3.19996C2.68897 3.35551 2.64453 3.52218 2.66675 3.69996C2.68897 3.87773 2.77786 4.02218 2.93341 4.13329ZM12.6667 9.99996H13.3334C13.7001 9.99996 14.0139 9.86951 14.2747 9.60862C14.5356 9.34773 14.6663 9.03373 14.6667 8.66662V7.33329C14.6667 6.96662 14.5361 6.65285 14.2747 6.39196C14.0134 6.13107 13.6996 6.0004 13.3334 5.99996H10.6667L8.35008 4.59996C8.12786 4.46662 7.90275 4.46662 7.67475 4.59996C7.44675 4.73329 7.33297 4.92773 7.33341 5.18329V10.8166C7.33341 11.0722 7.44741 11.2666 7.67541 11.4C7.90341 11.5333 8.1283 11.5333 8.35008 11.4L10.6667 9.99996H11.3334V12C11.3334 12.1888 11.3974 12.3473 11.5254 12.4753C11.6534 12.6033 11.8116 12.6671 12.0001 12.6666C12.1885 12.6662 12.3467 12.6022 12.4747 12.4746C12.6027 12.3471 12.6667 12.1888 12.6667 12V9.99996ZM8.5 9.99996V5.99996L10.3001 6.96662H13.6987V9.03329H10.3001L8.5 9.99996ZM6.66675 10.2333V5.76662C6.36675 6.03329 6.12497 6.3584 5.94141 6.74196C5.75786 7.12551 5.6663 7.54485 5.66675 7.99996C5.66719 8.45507 5.75897 8.87462 5.94208 9.25862C6.12519 9.64262 6.36675 9.96751 6.66675 10.2333Z" fill="#6040FF"/>
</g>
</svg>
