<svg width="16" height="16" viewBox="0 0 16 16" fill="none" xmlns="http://www.w3.org/2000/svg">
<g id="mingcute:content-ai-line">
<g id="Group">
<path id="Vector" d="M2.66667 2.66675C2.48986 2.66675 2.32029 2.73699 2.19526 2.86201C2.07024 2.98703 2 3.1566 2 3.33341C2 3.51023 2.07024 3.67979 2.19526 3.80482C2.32029 3.92984 2.48986 4.00008 2.66667 4.00008H13.3333C13.5101 4.00008 13.6797 3.92984 13.8047 3.80482C13.9298 3.67979 14 3.51023 14 3.33341C14 3.1566 13.9298 2.98703 13.8047 2.86201C13.6797 2.73699 13.5101 2.66675 13.3333 2.66675H2.66667ZM11.3333 5.33341C11.4724 5.33347 11.608 5.37701 11.721 5.45794C11.8341 5.53887 11.9191 5.65314 11.964 5.78475L12.0507 6.03675C12.1493 6.32592 12.3129 6.58864 12.5289 6.80474C12.7449 7.02085 13.0076 7.1846 13.2967 7.28341L13.5487 7.36941C13.6801 7.41446 13.7942 7.49947 13.875 7.61254C13.9558 7.72562 13.9992 7.86111 13.9992 8.00008C13.9992 8.13905 13.9558 8.27454 13.875 8.38762C13.7942 8.50069 13.6801 8.5857 13.5487 8.63075L13.2967 8.71741C13.0075 8.81608 12.7448 8.97968 12.5287 9.19568C12.3126 9.41167 12.1488 9.6743 12.05 9.96341L11.964 10.2154C11.919 10.3469 11.8339 10.461 11.7209 10.5418C11.6078 10.6225 11.4723 10.666 11.3333 10.666C11.1944 10.666 11.0589 10.6225 10.9458 10.5418C10.8327 10.461 10.7477 10.3469 10.7027 10.2154L10.616 9.96341C10.5173 9.67424 10.3537 9.41152 10.1377 9.19542C9.92175 8.97931 9.65912 8.81557 9.37 8.71675L9.118 8.63075C8.98654 8.5857 8.87244 8.50069 8.79165 8.38762C8.71087 8.27454 8.66744 8.13905 8.66744 8.00008C8.66744 7.86111 8.71087 7.72562 8.79165 7.61254C8.87244 7.49947 8.98654 7.41446 9.118 7.36941L9.37 7.28275C9.65917 7.18408 9.92189 7.02048 10.138 6.80449C10.3541 6.5885 10.5178 6.32586 10.6167 6.03675L10.7027 5.78475C10.7476 5.65314 10.8325 5.53887 10.9456 5.45794C11.0587 5.37701 11.1943 5.33347 11.3333 5.33341ZM11.3333 7.46408C11.1756 7.66255 10.9958 7.84238 10.7973 8.00008C10.9964 8.15786 11.1751 8.33653 11.3333 8.53608C11.4911 8.33653 11.6698 8.15786 11.8693 8.00008C11.6709 7.84238 11.491 7.66255 11.3333 7.46408ZM2 12.6667C2 12.4899 2.07024 12.3204 2.19526 12.1953C2.32029 12.0703 2.48986 12.0001 2.66667 12.0001H3.33333C3.51014 12.0001 3.67971 12.0703 3.80474 12.1953C3.92976 12.3204 4 12.4899 4 12.6667C4 12.8436 3.92976 13.0131 3.80474 13.1382C3.67971 13.2632 3.51014 13.3334 3.33333 13.3334H2.66667C2.48986 13.3334 2.32029 13.2632 2.19526 13.1382C2.07024 13.0131 2 12.8436 2 12.6667ZM9.33333 12.0001C9.15652 12.0001 8.98695 12.0703 8.86193 12.1953C8.7369 12.3204 8.66667 12.4899 8.66667 12.6667C8.66667 12.8436 8.7369 13.0131 8.86193 13.1382C8.98695 13.2632 9.15652 13.3334 9.33333 13.3334H10C10.1768 13.3334 10.3464 13.2632 10.4714 13.1382C10.5964 13.0131 10.6667 12.8436 10.6667 12.6667C10.6667 12.4899 10.5964 12.3204 10.4714 12.1953C10.3464 12.0703 10.1768 12.0001 10 12.0001H9.33333ZM5.33333 12.6667C5.33333 12.4899 5.40357 12.3204 5.5286 12.1953C5.65362 12.0703 5.82319 12.0001 6 12.0001H6.66667C6.84348 12.0001 7.01305 12.0703 7.13807 12.1953C7.2631 12.3204 7.33333 12.4899 7.33333 12.6667C7.33333 12.8436 7.2631 13.0131 7.13807 13.1382C7.01305 13.2632 6.84348 13.3334 6.66667 13.3334H6C5.82319 13.3334 5.65362 13.2632 5.5286 13.1382C5.40357 13.0131 5.33333 12.8436 5.33333 12.6667ZM12.6667 12.0001C12.4899 12.0001 12.3203 12.0703 12.1953 12.1953C12.0702 12.3204 12 12.4899 12 12.6667C12 12.8436 12.0702 13.0131 12.1953 13.1382C12.3203 13.2632 12.4899 13.3334 12.6667 13.3334H13.3333C13.5101 13.3334 13.6797 13.2632 13.8047 13.1382C13.9298 13.0131 14 12.8436 14 12.6667C14 12.4899 13.9298 12.3204 13.8047 12.1953C13.6797 12.0703 13.5101 12.0001 13.3333 12.0001H12.6667ZM2 8.00008C2 7.82327 2.07024 7.6537 2.19526 7.52868C2.32029 7.40365 2.48986 7.33341 2.66667 7.33341H6.66667C6.84348 7.33341 7.01305 7.40365 7.13807 7.52868C7.2631 7.6537 7.33333 7.82327 7.33333 8.00008C7.33333 8.17689 7.2631 8.34646 7.13807 8.47149C7.01305 8.59651 6.84348 8.66675 6.66667 8.66675H4.66667H2.66667C2.48986 8.66675 2.32029 8.59651 2.19526 8.47149C2.07024 8.34646 2 8.17689 2 8.00008Z" fill="#6040FF"/>
</g>
</g>
</svg>
