<svg width="19" height="19" viewBox="0 0 19 19" fill="none" xmlns="http://www.w3.org/2000/svg">
<g id="material-symbols:star-rounded">
<path id="Vector" d="M9.89971 13.1001L6.75263 14.9959C6.6136 15.0844 6.46825 15.1223 6.31659 15.1097C6.16492 15.097 6.03221 15.0465 5.91846 14.958C5.80471 14.8695 5.71624 14.7591 5.65305 14.6266C5.58985 14.4942 5.57721 14.3455 5.61513 14.1807L6.4493 10.5976L3.66242 8.1899C3.53603 8.07615 3.45717 7.94647 3.42582 7.80087C3.39448 7.65527 3.40383 7.51321 3.45388 7.37469C3.50393 7.23617 3.57976 7.12242 3.68138 7.03344C3.783 6.94446 3.92202 6.88759 4.09846 6.86281L7.77638 6.54052L9.19825 3.16594C9.26145 3.01427 9.35953 2.90052 9.49249 2.82469C9.62545 2.74885 9.76119 2.71094 9.89971 2.71094C10.0382 2.71094 10.174 2.74885 10.3069 2.82469C10.4399 2.90052 10.538 3.01427 10.6012 3.16594L12.023 6.54052L15.701 6.86281C15.8779 6.88809 16.0169 6.94497 16.118 7.03344C16.2192 7.12191 16.295 7.23566 16.3455 7.37469C16.3961 7.51372 16.4057 7.65603 16.3744 7.80163C16.343 7.94723 16.2639 8.07665 16.137 8.1899L13.3501 10.5976L14.1843 14.1807C14.2222 14.345 14.2096 14.4937 14.1464 14.6266C14.0832 14.7596 13.9947 14.8701 13.881 14.958C13.7672 15.046 13.6345 15.0965 13.4828 15.1097C13.3312 15.1228 13.1858 15.0849 13.0468 14.9959L9.89971 13.1001Z" fill="#FFCC15"/>
</g>
</svg>
