<svg width="16" height="16" viewBox="0 0 16 16" fill="none" xmlns="http://www.w3.org/2000/svg">
<g id="tabler:filter-search">
<path id="Vector" d="M7.57341 13.4753L6.00008 14V8.33329L3.01341 5.04796C2.79038 4.80258 2.66678 4.48289 2.66675 4.15129V2.66663H13.3334V4.11463C13.3333 4.46822 13.1928 4.8073 12.9427 5.05729L10.0001 7.99996M13.4667 13.4666L14.6667 14.6666M10.0001 12C10.0001 12.5304 10.2108 13.0391 10.5859 13.4142C10.9609 13.7892 11.4696 14 12.0001 14C12.5305 14 13.0392 13.7892 13.4143 13.4142C13.7894 13.0391 14.0001 12.5304 14.0001 12C14.0001 11.4695 13.7894 10.9608 13.4143 10.5857C13.0392 10.2107 12.5305 9.99996 12.0001 9.99996C11.4696 9.99996 10.9609 10.2107 10.5859 10.5857C10.2108 10.9608 10.0001 11.4695 10.0001 12Z" stroke="#6040FF" stroke-linecap="round" stroke-linejoin="round"/>
</g>
</svg>
