<svg width="69" height="69" viewBox="0 0 69 69" fill="none" xmlns="http://www.w3.org/2000/svg">
<g id="Group 37">
<circle id="Ellipse 35" cx="34.5" cy="34.5" r="34.5" fill="#D9D9D9" fill-opacity="0.26"/>
<path id="Vector" d="M43.3447 27.6973C41.981 27.6973 40.7009 27.9604 39.5046 28.4868C38.2844 28.9893 37.2257 29.6891 36.3285 30.5863C35.4313 31.4835 34.7314 32.5422 34.229 33.7625C33.7026 34.9587 33.4395 36.2388 33.4395 37.6025C33.4395 38.2725 33.5052 38.9364 33.6368 39.5944C33.7684 40.2523 33.9658 40.8804 34.229 41.4785H26.8359V37.7461C26.8359 37.5547 26.7701 37.3872 26.6385 37.2437C26.507 37.1001 26.3335 37.0283 26.1182 37.0283C25.9268 37.0283 25.7593 37.1001 25.6157 37.2437C25.4722 37.3872 25.4004 37.5547 25.4004 37.7461V42.1963C25.4004 42.3877 25.4722 42.5552 25.6157 42.6987C25.7593 42.8423 25.9268 42.9141 26.1182 42.9141H34.9827C35.0784 43.0815 35.186 43.243 35.3057 43.3986C35.4253 43.5541 35.5449 43.7036 35.6646 43.8472C35.6646 43.8472 35.6646 43.8531 35.6646 43.8651C35.6646 43.8771 35.6765 43.8831 35.7004 43.8831L41.8733 51.8145H38.4998C38.3083 51.8145 38.1409 51.8862 37.9973 52.0298C37.8538 52.1733 37.782 52.3408 37.782 52.5322C37.782 52.7236 37.8538 52.8911 37.9973 53.0347C38.1409 53.1782 38.3083 53.25 38.4998 53.25H48.1897C48.405 53.25 48.5785 53.1782 48.7101 53.0347C48.8417 52.8911 48.9075 52.7236 48.9075 52.5322C48.9075 52.3408 48.8417 52.1733 48.7101 52.0298C48.5785 51.8862 48.405 51.8145 48.1897 51.8145H44.8162L51.0249 43.8472C51.0249 43.8472 51.0369 43.8472 51.0608 43.8472C51.7546 42.9619 52.293 41.981 52.6758 40.9043C53.0586 39.8276 53.25 38.7271 53.25 37.6025C53.25 36.2388 52.9868 34.9587 52.4604 33.7625C51.958 32.5422 51.2582 31.4835 50.361 30.5863C49.4637 29.6891 48.405 28.9893 47.1848 28.4868C45.9885 27.9604 44.7085 27.6973 43.3447 27.6973ZM49.9124 42.95C49.9124 42.95 49.9064 42.9559 49.8944 42.9679C49.8824 42.9799 49.8765 42.9858 49.8765 42.9858L43.3447 51.3479L36.8848 43.0576C36.8608 43.0576 36.8429 43.0516 36.8309 43.0397C36.819 43.0277 36.813 43.0098 36.813 42.9858C36.1909 42.2441 35.7124 41.4067 35.3774 40.4736C35.0425 39.5405 34.875 38.5835 34.875 37.6025C34.875 36.4302 35.1023 35.3296 35.5569 34.3008C35.9875 33.272 36.5857 32.3748 37.3513 31.6091C38.1169 30.8435 39.0142 30.2334 40.043 29.7788C41.0718 29.3481 42.1724 29.1328 43.3447 29.1328C44.5171 29.1328 45.6177 29.3481 46.6465 29.7788C47.6753 30.2334 48.5725 30.8435 49.3381 31.6091C50.1038 32.3748 50.7019 33.272 51.1326 34.3008C51.5872 35.3296 51.8145 36.4302 51.8145 37.6025C51.8145 38.5835 51.653 39.5286 51.33 40.4377C51.007 41.3469 50.5344 42.1843 49.9124 42.95ZM48.9434 35.9517C48.8955 35.7603 48.7819 35.6167 48.6024 35.521C48.423 35.4253 48.2375 35.4133 48.0461 35.4851C47.8547 35.533 47.7112 35.6466 47.6155 35.826C47.5198 36.0055 47.5078 36.1909 47.5796 36.3823C47.8428 37.1719 47.8727 37.9734 47.6693 38.7869C47.4659 39.6003 47.0771 40.3062 46.5029 40.9043C45.6177 41.7656 44.5649 42.1963 43.3447 42.1963C42.1245 42.1963 41.0718 41.7656 40.1865 40.9043C39.7798 40.4736 39.4628 39.9891 39.2355 39.4508C39.0082 38.9125 38.8945 38.3442 38.8945 37.7461C38.8945 37.1479 39.0082 36.5797 39.2355 36.0414C39.4628 35.5031 39.7798 35.0186 40.1865 34.5879C40.7607 34.0376 41.4366 33.6608 42.2142 33.4574C42.9918 33.254 43.7634 33.26 44.5291 33.4753C44.7205 33.5232 44.9059 33.4993 45.0853 33.4036C45.2648 33.3079 45.3784 33.1643 45.4263 32.9729C45.4741 32.7815 45.4502 32.5961 45.3545 32.4166C45.2588 32.2372 45.1152 32.1235 44.9238 32.0757C43.895 31.7886 42.8662 31.7826 41.8374 32.0577C40.8086 32.3329 39.9233 32.8413 39.1816 33.583C38.6313 34.1333 38.2067 34.7673 37.9076 35.4851C37.6085 36.2029 37.459 36.9565 37.459 37.7461C37.459 38.5356 37.6085 39.2893 37.9076 40.0071C38.2067 40.7249 38.6313 41.3589 39.1816 41.9092C39.7559 42.4834 40.4019 42.9141 41.1196 43.2012C41.8374 43.4883 42.5791 43.6318 43.3447 43.6318C44.0864 43.6318 44.8221 43.4883 45.5519 43.2012C46.2816 42.9141 46.9336 42.4834 47.5078 41.9092C48.2974 41.1196 48.8177 40.1925 49.069 39.1278C49.3202 38.0631 49.2783 37.0044 48.9434 35.9517ZM47.5078 33.583C47.3643 33.4395 47.1968 33.3677 47.0054 33.3677C46.814 33.3677 46.6465 33.4395 46.5029 33.583C46.3594 33.7266 46.2876 33.894 46.2876 34.0854C46.2876 34.2769 46.3594 34.4443 46.5029 34.5879C46.5747 34.6597 46.6525 34.7135 46.7362 34.7494C46.8199 34.7853 46.9097 34.8032 47.0054 34.8032C47.1011 34.8032 47.1908 34.7853 47.2745 34.7494C47.3583 34.7135 47.436 34.6597 47.5078 34.5879C47.6514 34.4683 47.7231 34.3068 47.7231 34.1034C47.7231 33.9 47.6514 33.7266 47.5078 33.583ZM33.3318 46.6465H17.2178C17.0264 46.6465 16.8589 46.7183 16.7153 46.8618C16.5718 47.0054 16.5 47.1729 16.5 47.3643C16.5 47.5557 16.5718 47.7231 16.7153 47.8667C16.8589 48.0103 17.0264 48.082 17.2178 48.082H32.614V52.5322C32.614 52.7236 32.6798 52.8911 32.8114 53.0347C32.943 53.1782 33.1165 53.25 33.3318 53.25C33.5232 53.25 33.6907 53.1782 33.8342 53.0347C33.9778 52.8911 34.0496 52.7236 34.0496 52.5322V47.3643C34.0496 47.1729 33.9778 47.0054 33.8342 46.8618C33.6907 46.7183 33.5232 46.6465 33.3318 46.6465ZM29.5994 16.5C29.408 16.5 29.2405 16.5718 29.0969 16.7153C28.9534 16.8589 28.8816 17.0264 28.8816 17.2178V22.3857H17.2178C17.0264 22.3857 16.8589 22.4575 16.7153 22.6011C16.5718 22.7446 16.5 22.9121 16.5 23.1035C16.5 23.2949 16.5718 23.4624 16.7153 23.606C16.8589 23.7495 17.0264 23.8213 17.2178 23.8213H29.5994C29.7908 23.8213 29.9583 23.7495 30.1018 23.606C30.2454 23.4624 30.3171 23.2949 30.3171 23.1035V17.2178C30.3171 17.0264 30.2454 16.8589 30.1018 16.7153C29.9583 16.5718 29.7908 16.5 29.5994 16.5ZM22.6729 27.5537H17.2178C17.0264 27.5537 16.8589 27.6255 16.7153 27.769C16.5718 27.9126 16.5 28.0801 16.5 28.2715C16.5 28.4629 16.5718 28.6304 16.7153 28.7739C16.8589 28.9175 17.0264 28.9893 17.2178 28.9893H21.9551V41.4785H17.2178C17.0264 41.4785 16.8589 41.5503 16.7153 41.6938C16.5718 41.8374 16.5 42.0049 16.5 42.1963C16.5 42.3877 16.5718 42.5552 16.7153 42.6987C16.8589 42.8423 17.0264 42.9141 17.2178 42.9141H22.6729C22.8643 42.9141 23.0317 42.8423 23.1753 42.6987C23.3188 42.5552 23.3906 42.3877 23.3906 42.1963V28.2715C23.3906 28.0801 23.3188 27.9126 23.1753 27.769C23.0317 27.6255 22.8643 27.5537 22.6729 27.5537ZM26.6206 34.7314C26.5728 34.6597 26.501 34.6058 26.4053 34.5699C26.3096 34.5341 26.2139 34.5161 26.1182 34.5161C26.0225 34.5161 25.9327 34.5341 25.849 34.5699C25.7653 34.6058 25.6875 34.6597 25.6157 34.7314C25.5439 34.8032 25.4901 34.881 25.4542 34.9647C25.4183 35.0485 25.4004 35.1382 25.4004 35.2339C25.4004 35.3296 25.4183 35.4193 25.4542 35.5031C25.4901 35.5868 25.5439 35.6646 25.6157 35.7363C25.6875 35.8081 25.7653 35.8619 25.849 35.8978C25.9327 35.9337 26.0225 35.9517 26.1182 35.9517C26.2139 35.9517 26.3096 35.9337 26.4053 35.8978C26.501 35.8619 26.5728 35.8081 26.6206 35.7363C26.6924 35.6646 26.7462 35.5868 26.7821 35.5031C26.818 35.4193 26.8359 35.3296 26.8359 35.2339C26.8359 35.1382 26.818 35.0485 26.7821 34.9647C26.7462 34.881 26.6924 34.8032 26.6206 34.7314ZM34.875 27.5537H26.1182C25.9268 27.5537 25.7593 27.6255 25.6157 27.769C25.4722 27.9126 25.4004 28.0801 25.4004 28.2715V32.2551C25.4004 32.4465 25.4722 32.614 25.6157 32.7576C25.7593 32.9011 25.9268 32.9729 26.1182 32.9729C26.3335 32.9729 26.507 32.9011 26.6385 32.7576C26.7701 32.614 26.8359 32.4465 26.8359 32.2551V28.9893H34.875C35.0664 28.9893 35.2339 28.9175 35.3774 28.7739C35.521 28.6304 35.5928 28.4629 35.5928 28.2715C35.5928 28.0801 35.521 27.9126 35.3774 27.769C35.2339 27.6255 35.0664 27.5537 34.875 27.5537ZM45.2109 16.5C45.0195 16.5 44.8521 16.5718 44.7085 16.7153C44.5649 16.8589 44.4932 17.0264 44.4932 17.2178V22.3857H33.7983V17.2178C33.7983 17.0264 33.7266 16.8589 33.583 16.7153C33.4395 16.5718 33.272 16.5 33.0806 16.5C32.8652 16.5 32.6918 16.5718 32.5602 16.7153C32.4286 16.8589 32.3628 17.0264 32.3628 17.2178V23.1035C32.3628 23.1992 32.3807 23.2889 32.4166 23.3727C32.4525 23.4564 32.4944 23.5342 32.5422 23.606C32.614 23.6777 32.6978 23.7316 32.7935 23.7675C32.8892 23.8033 32.9849 23.8213 33.0806 23.8213H45.2109C45.4023 23.8213 45.5698 23.7495 45.7134 23.606C45.8569 23.4624 45.9287 23.2949 45.9287 23.1035V17.2178C45.9287 17.0264 45.8569 16.8589 45.7134 16.7153C45.5698 16.5718 45.4023 16.5 45.2109 16.5ZM52.5322 22.3857H49.374V17.2178C49.374 17.0264 49.3022 16.8589 49.1587 16.7153C49.0151 16.5718 48.8477 16.5 48.6562 16.5C48.4648 16.5 48.2974 16.5718 48.1538 16.7153C48.0103 16.8589 47.9385 17.0264 47.9385 17.2178V23.1035C47.9385 23.2949 48.0103 23.4624 48.1538 23.606C48.2974 23.7495 48.4648 23.8213 48.6562 23.8213H52.5322C52.7236 23.8213 52.8911 23.7495 53.0347 23.606C53.1782 23.4624 53.25 23.2949 53.25 23.1035C53.25 22.9121 53.1782 22.7446 53.0347 22.6011C52.8911 22.4575 52.7236 22.3857 52.5322 22.3857ZM52.5322 27.5537H50.2712C50.0798 27.5537 49.9124 27.6255 49.7688 27.769C49.6252 27.9126 49.5535 28.0801 49.5535 28.2715C49.5535 28.4629 49.6252 28.6304 49.7688 28.7739C49.9124 28.9175 50.0798 28.9893 50.2712 28.9893H52.5322C52.7236 28.9893 52.8911 28.9175 53.0347 28.7739C53.1782 28.6304 53.25 28.4629 53.25 28.2715C53.25 28.0801 53.1782 27.9126 53.0347 27.769C52.8911 27.6255 52.7236 27.5537 52.5322 27.5537Z" fill="#927CFF"/>
</g>
</svg>
