<svg width="24" height="24" viewBox="0 0 24 24" fill="none" xmlns="http://www.w3.org/2000/svg">
<g id="bitcoin-icons:arrow-up-filled">
<path id="Vector" fill-rule="evenodd" clip-rule="evenodd" d="M21.5297 11.4699C21.6701 11.6106 21.749 11.8012 21.749 11.9999C21.749 12.1987 21.6701 12.3893 21.5297 12.5299L14.5427 19.5299C14.4735 19.6016 14.3908 19.6588 14.2993 19.6981C14.2078 19.7375 14.1094 19.7582 14.0098 19.7591C13.9103 19.76 13.8115 19.7411 13.7193 19.7034C13.6271 19.6658 13.5433 19.6101 13.4729 19.5397C13.4024 19.4694 13.3467 19.3856 13.309 19.2935C13.2712 19.2013 13.2522 19.1026 13.253 19.003C13.2538 18.9034 13.2745 18.805 13.3137 18.7135C13.353 18.6219 13.4101 18.5392 13.4817 18.4699L19.1897 12.7509L2.99968 12.7619C2.80077 12.7622 2.6099 12.6834 2.46906 12.543C2.32822 12.4025 2.24895 12.2119 2.24868 12.0129C2.24842 11.814 2.32718 11.6232 2.46765 11.4823C2.60811 11.3415 2.79877 11.2622 2.99768 11.2619L19.1917 11.2519L13.4807 5.52994C13.4091 5.46072 13.352 5.37794 13.3127 5.28641C13.2735 5.19489 13.2528 5.09647 13.252 4.99688C13.2512 4.8973 13.2702 4.79855 13.308 4.7064C13.3457 4.61424 13.4014 4.53053 13.4719 4.46014C13.5423 4.38976 13.6261 4.33411 13.7183 4.29644C13.8105 4.25877 13.9093 4.23984 14.0088 4.24075C14.1084 4.24167 14.2068 4.2624 14.2983 4.30175C14.3898 4.3411 14.4725 4.39828 14.5417 4.46994L21.5297 11.4699Z" fill="black"/>
</g>
</svg>
