<svg width="69" height="69" viewBox="0 0 69 69" fill="none" xmlns="http://www.w3.org/2000/svg">
<g id="Group 37">
<circle id="Ellipse 35" cx="34.5" cy="34.5" r="34.5" fill="#D9D9D9" fill-opacity="0.26"/>
<path id="Vector" d="M31.7776 48.4087H28.7629C28.5476 48.4087 28.3741 48.4805 28.2426 48.624C28.111 48.7676 28.0452 48.9351 28.0452 49.1265C28.0452 49.3418 28.111 49.5153 28.2426 49.6469C28.3741 49.7784 28.5476 49.8442 28.7629 49.8442H31.7776C31.9929 49.8442 32.1664 49.7784 32.298 49.6469C32.4296 49.5153 32.4954 49.3418 32.4954 49.1265C32.4954 48.9351 32.4296 48.7676 32.298 48.624C32.1664 48.4805 31.9929 48.4087 31.7776 48.4087ZM36.6943 19.1594C36.6943 18.968 36.6226 18.8005 36.479 18.657C36.3354 18.5134 36.168 18.4417 35.9766 18.4417H24.564C24.3726 18.4417 24.2051 18.5134 24.0615 18.657C23.918 18.8005 23.8462 18.968 23.8462 19.1594C23.8462 19.3508 23.918 19.5183 24.0615 19.6619C24.2051 19.8054 24.3726 19.8772 24.564 19.8772H35.9766C36.168 19.8772 36.3354 19.8054 36.479 19.6619C36.6226 19.5183 36.6943 19.3508 36.6943 19.1594ZM50.6909 27.0549C50.667 26.4807 50.4457 25.9962 50.027 25.6014C49.6083 25.2067 49.1118 25.0093 48.5376 25.0093H41.7905V19.6978C41.7905 18.6211 41.4017 17.694 40.6241 16.9164C39.8466 16.1388 38.9194 15.75 37.8428 15.75H22.6978C21.6211 15.75 20.694 16.1388 19.9164 16.9164C19.1388 17.694 18.75 18.6211 18.75 19.6978V48.5522C18.75 49.6289 19.1388 50.556 19.9164 51.3336C20.694 52.1112 21.6211 52.5 22.6978 52.5H37.8428C38.9194 52.5 39.8466 52.1112 40.6241 51.3336C41.4017 50.556 41.7905 49.6289 41.7905 48.5522V40.2979H48.5376C49.1118 40.2979 49.6083 40.1005 50.027 39.7057C50.4457 39.3109 50.667 38.8384 50.6909 38.2881C50.6909 38.2642 50.6909 37.666 50.6909 36.4937C50.6909 35.3213 50.6909 34.0413 50.6909 32.6536C50.6909 31.2659 50.6909 29.9858 50.6909 28.8135C50.6909 27.6411 50.6909 27.0549 50.6909 27.0549ZM37.8428 51.0645H22.6978C22.0039 51.0645 21.4117 50.8192 20.9213 50.3287C20.4308 49.8383 20.1855 49.2461 20.1855 48.5522V47.1885H40.355V48.5522C40.355 49.2461 40.1097 49.8383 39.6193 50.3287C39.1288 50.8192 38.5366 51.0645 37.8428 51.0645ZM40.355 45.7529H20.1855V19.6978C20.1855 19.0039 20.4308 18.4117 20.9213 17.9213C21.4117 17.4308 22.0039 17.1855 22.6978 17.1855H37.8428C38.5366 17.1855 39.1288 17.4308 39.6193 17.9213C40.1097 18.4117 40.355 19.0039 40.355 19.6978V25.0093H33.572C32.9978 25.0093 32.5073 25.2067 32.1006 25.6014C31.6938 25.9962 31.4785 26.4688 31.4546 27.019C31.4546 27.043 31.4486 27.0669 31.4366 27.0908C31.4247 27.1147 31.4187 27.1267 31.4187 27.1267C31.4187 32.6775 31.4247 35.9194 31.4366 36.8525C31.4486 37.7856 31.4546 38.2642 31.4546 38.2881C31.4785 38.8384 31.6938 39.3109 32.1006 39.7057C32.5073 40.1005 32.9978 40.2979 33.572 40.2979H40.355V45.7529ZM49.2554 38.2163C49.2314 38.3838 49.1537 38.5333 49.0221 38.6649C48.8905 38.7965 48.729 38.8623 48.5376 38.8623H33.572C33.3806 38.8623 33.2191 38.7965 33.0875 38.6649C32.9559 38.5333 32.8901 38.3838 32.8901 38.2163C32.8662 38.0967 32.8542 37.4626 32.8542 36.3142C32.8542 35.1418 32.8542 33.8857 32.8542 32.5459C32.8542 31.2061 32.8542 29.9739 32.8542 28.8494C32.8542 27.7249 32.8542 27.1506 32.8542 27.1267C32.8542 27.1267 32.8542 27.1147 32.8542 27.0908C32.8782 26.9233 32.9559 26.7738 33.0875 26.6422C33.2191 26.5106 33.3806 26.4448 33.572 26.4448H48.5376C48.729 26.4448 48.8905 26.5106 49.0221 26.6422C49.1537 26.7738 49.2314 26.9233 49.2554 27.0908C49.2554 27.2104 49.2554 27.8325 49.2554 28.957C49.2554 30.0815 49.2554 31.3137 49.2554 32.6536C49.2554 33.9934 49.2554 35.2256 49.2554 36.3501C49.2554 37.4746 49.2554 38.0967 49.2554 38.2163ZM47.2097 27.8086C47.0662 27.665 46.8927 27.5933 46.6893 27.5933C46.486 27.5933 46.3125 27.665 46.1689 27.8086L41.8623 31.9358C41.5991 31.8401 41.33 31.7922 41.0548 31.7922C40.7797 31.7922 40.5225 31.8401 40.2832 31.9358L35.9407 27.8086C35.7971 27.665 35.6237 27.5992 35.4203 27.6112C35.2169 27.6232 35.0554 27.7009 34.9358 27.8445C34.7922 27.988 34.7205 28.1555 34.7205 28.3469C34.7205 28.5383 34.7922 28.7058 34.9358 28.8494L39.063 32.7612L35.0076 36.4219C34.864 36.5415 34.7863 36.703 34.7743 36.9064C34.7623 37.1097 34.8281 37.2832 34.9717 37.4268C35.0913 37.5703 35.2528 37.6481 35.4562 37.66C35.6595 37.672 35.833 37.6062 35.9766 37.4626L40.4626 33.4431C40.6301 33.2996 40.8275 33.2278 41.0548 33.2278C41.2821 33.2278 41.4915 33.2996 41.6829 33.4431L46.1689 37.4626C46.2407 37.5344 46.3185 37.5883 46.4022 37.6241C46.486 37.66 46.5637 37.678 46.6355 37.678C46.7551 37.678 46.8568 37.6541 46.9406 37.6062C47.0243 37.5583 47.1021 37.4985 47.1738 37.4268C47.3174 37.2832 47.3832 37.1097 47.3712 36.9064C47.3593 36.703 47.2815 36.5415 47.1379 36.4219L43.0466 32.7612L47.1738 28.8494C47.3174 28.7058 47.3892 28.5323 47.3892 28.329C47.3892 28.1256 47.3293 27.9521 47.2097 27.8086Z" fill="#927CFF"/>
</g>
</svg>
