<svg width="69" height="69" viewBox="0 0 69 69" fill="none" xmlns="http://www.w3.org/2000/svg">
<g id="Group 38">
<circle id="Ellipse 36" cx="34.5" cy="34.5" r="34.5" fill="#545454"/>
<path id="Vector" d="M30.7296 49.6171H20.8954C20.5167 49.6171 20.138 49.5402 19.7593 49.3864C19.3806 49.2325 19.0492 49.0017 18.7652 48.6941C18.5049 48.3864 18.28 48.055 18.0907 47.7C17.9013 47.3449 17.8066 46.9663 17.8066 46.5639V23.0611C17.8066 22.6824 17.8836 22.3037 18.0374 21.925C18.1913 21.5463 18.422 21.2149 18.7297 20.9309C18.9901 20.6705 19.3096 20.4575 19.6883 20.2918C20.067 20.1262 20.4457 20.0433 20.8244 20.0433H45.0728C45.4751 20.0433 45.8597 20.1202 46.2266 20.2741C46.5935 20.4279 46.9189 20.6469 47.2029 20.9309C47.4633 21.2386 47.6763 21.5759 47.842 21.9427C48.0077 22.3096 48.0905 22.6824 48.0905 23.0611V30.6231H46.5994V23.0611C46.5994 22.848 46.558 22.6528 46.4751 22.4753C46.3923 22.2977 46.2917 22.1261 46.1734 21.9605C46.0077 21.8185 45.8361 21.7119 45.6586 21.6409C45.4811 21.5699 45.2858 21.5344 45.0728 21.5344H20.8244C20.6587 21.5818 20.4871 21.6409 20.3096 21.7119C20.1321 21.783 19.9605 21.8895 19.7948 22.0315C19.6528 22.1971 19.5522 22.3687 19.493 22.5463C19.4339 22.7238 19.4043 22.919 19.4043 23.1321V46.5639C19.4043 46.7769 19.4398 46.9781 19.5108 47.1674C19.5818 47.3568 19.6765 47.5225 19.7948 47.6645C19.9605 47.8065 20.1321 47.913 20.3096 47.984C20.4871 48.055 20.6824 48.0905 20.8954 48.0905H30.7296V49.6171ZM40.5284 17.8066H42.055V23.8421H40.5284V17.8066ZM23.8776 17.8066H25.3687V23.8421H23.8776V17.8066ZM18.5877 27.6054H47.3804V29.132H18.5877V27.6054ZM41.3095 51.9248C39.9604 51.9248 38.6823 51.6645 37.4752 51.1437C36.2681 50.623 35.2208 49.913 34.3332 49.0136C33.4456 48.1142 32.7415 47.0728 32.2208 45.8893C31.7001 44.6822 31.4397 43.3923 31.4397 42.0195C31.4397 40.6704 31.7001 39.3923 32.2208 38.1852C32.7415 36.9781 33.4456 35.9308 34.3332 35.0432C35.2208 34.1557 36.2681 33.4515 37.4752 32.9308C38.6823 32.4101 39.9604 32.1498 41.3095 32.1498C42.6822 32.1498 43.9722 32.4101 45.1793 32.9308C46.3627 33.4515 47.4041 34.1557 48.3035 35.0432C49.2029 35.9308 49.913 36.9781 50.4337 38.1852C50.9544 39.3923 51.2147 40.6704 51.2147 42.0195C51.2147 43.3923 50.9544 44.6822 50.4337 45.8893C49.913 47.0728 49.2029 48.1142 48.3035 49.0136C47.4041 49.913 46.3627 50.623 45.1793 51.1437C43.9722 51.6645 42.6822 51.9248 41.3095 51.9248ZM41.3095 33.7474C40.1734 33.7474 39.0965 33.9604 38.0787 34.3864C37.061 34.8361 36.1793 35.4338 35.4338 36.1793C34.6882 36.9249 34.1024 37.8065 33.6764 38.8243C33.2503 39.8184 33.0373 40.8834 33.0373 42.0195C33.0373 43.1556 33.2503 44.2325 33.6764 45.2503C34.1261 46.2444 34.7237 47.1201 35.4693 47.8775C36.2148 48.6349 37.0965 49.2384 38.1142 49.6881C39.1083 50.1142 40.1734 50.3272 41.3095 50.3272C42.4456 50.3272 43.5225 50.1142 44.5402 49.6881C45.5343 49.2384 46.41 48.6349 47.1674 47.8775C47.9248 47.1201 48.5284 46.2444 48.9781 45.2503C49.4041 44.2325 49.6171 43.1556 49.6171 42.0195C49.6171 40.8834 49.4041 39.8184 48.9781 38.8243C48.552 37.8065 47.9603 36.9249 47.2029 36.1793C46.4455 35.4338 45.5698 34.8361 44.5757 34.3864C43.558 33.9604 42.4692 33.7474 41.3095 33.7474ZM45.0018 46.8124L40.5284 42.3391V35.1675H42.126V41.7355L46.1024 45.7118L45.0018 46.8124ZM29.203 39.0018H21.6409V31.4397H29.203V39.0018ZM23.1321 37.4752H27.6764V32.9308H23.1321V37.4752Z" fill="#927CFF"/>
</g>
</svg>
