<?xml version="1.0" encoding="utf-8"?>
<!-- Generator: Adobe Illustrator 27.5.0, SVG Export Plug-In . SVG Version: 6.00 Build 0)  -->
<svg version="1.1" xmlns="http://www.w3.org/2000/svg" xmlns:xlink="http://www.w3.org/1999/xlink" x="0px" y="0px"
	 viewBox="0 0 500 500" style="enable-background:new 0 0 500 500;" xml:space="preserve">
<g id="Background_Complete">
	<g>
		<rect y="382.398" style="fill:#EBEBEB;" width="500" height="0.25"/>
		<rect x="416.779" y="398.494" style="fill:#EBEBEB;" width="33.122" height="0.25"/>
		<rect x="322.527" y="401.208" style="fill:#EBEBEB;" width="8.693" height="0.25"/>
		<rect x="396.586" y="389.208" style="fill:#EBEBEB;" width="19.192" height="0.25"/>
		<rect x="52.459" y="390.888" style="fill:#EBEBEB;" width="43.193" height="0.25"/>
		<rect x="104.556" y="390.888" style="fill:#EBEBEB;" width="6.333" height="0.25"/>
		<rect x="131.471" y="395.111" style="fill:#EBEBEB;" width="93.676" height="0.25"/>
		<path style="fill:#EBEBEB;" d="M237.014,337.8H43.915c-3.147,0-5.708-2.561-5.708-5.708V60.66c0-3.147,2.561-5.708,5.708-5.708
			h193.099c3.146,0,5.707,2.561,5.707,5.708v271.432C242.721,335.239,240.16,337.8,237.014,337.8z M43.915,55.203
			c-3.01,0-5.458,2.448-5.458,5.458v271.432c0,3.01,2.448,5.458,5.458,5.458h193.099c3.009,0,5.457-2.448,5.457-5.458V60.66
			c0-3.009-2.448-5.458-5.457-5.458H43.915z"/>
		<path style="fill:#EBEBEB;" d="M453.31,337.8H260.212c-3.147,0-5.707-2.561-5.707-5.708V60.66c0-3.147,2.561-5.708,5.707-5.708
			H453.31c3.148,0,5.708,2.561,5.708,5.708v271.432C459.019,335.239,456.458,337.8,453.31,337.8z M260.212,55.203
			c-3.009,0-5.457,2.448-5.457,5.458v271.432c0,3.01,2.448,5.458,5.457,5.458H453.31c3.01,0,5.458-2.448,5.458-5.458V60.66
			c0-3.009-2.448-5.458-5.458-5.458H260.212z"/>
	</g>
	<g>
		<g>
			<polygon style="fill:#E0E0E0;" points="409.527,123.787 327.197,229.061 266.776,241.186 204.114,286.837 165.985,258.695 
				85.598,382.235 107.072,382.235 170.659,284.516 204.044,309.157 274.186,258.057 337.272,245.398 423.706,134.876 			"/>
		</g>
		<polygon style="fill:#E0E0E0;" points="427.507,110.462 392.439,119.655 425.664,146.668 		"/>
		<g>
			<circle style="fill:#E0E0E0;" cx="133.927" cy="150.255" r="40.771"/>
			<path style="fill:#EBEBEB;" d="M133.927,150.255l36.583-17.999c2.755,5.6,4.188,11.758,4.188,17.999
				c0,22.366-18.405,40.771-40.771,40.771s-40.771-18.405-40.771-40.771c0-11.347,4.737-22.194,13.06-29.906L133.927,150.255z"/>
			<path style="fill:#F5F5F5;" d="M133.927,150.255l-8.452,39.886c-18.772-3.978-32.32-20.696-32.32-39.886
				c0-11.347,4.737-22.194,13.06-29.906L133.927,150.255z"/>
			<circle style="fill:#FFFFFF;" cx="133.927" cy="150.255" r="22.035"/>
		</g>
		<g>
			<rect x="77.593" y="247.241" style="fill:#F5F5F5;" width="32.454" height="21.27"/>
			<rect x="77.593" y="247.241" style="fill:#E0E0E0;" width="32.454" height="4.484"/>
		</g>
		<g>
			<rect x="396.586" y="335.993" style="fill:#F5F5F5;" width="32.454" height="21.27"/>
			<rect x="396.586" y="335.993" style="fill:#E0E0E0;" width="32.454" height="4.484"/>
		</g>
		<g>
			<rect x="305.928" y="84.83" style="fill:#F5F5F5;" width="32.454" height="21.27"/>
			<rect x="305.928" y="84.83" style="fill:#E0E0E0;" width="32.454" height="4.484"/>
		</g>
	</g>
</g>
<g id="Background_Simple" style="display:none;">
	<g style="display:inline;">
		<path style="fill:#407BFF;" d="M96.13,104.794c27.919-59.449,127.059-51.062,165.317-9.255
			c38.258,41.806,50.696,68.599,85.208,52.983c34.512-15.616,78.518-11.44,81.043,38.164S389.785,294.949,325.608,312.3
			c-64.177,17.352-64.161,78.759-149.1,66.368c-46.31-6.756-47.365-56.86-40.825-98.301
			C142.222,238.927,63.751,173.737,96.13,104.794z"/>
		<path style="opacity:0.9;fill:#FFFFFF;" d="M96.13,104.794c27.919-59.449,127.059-51.062,165.317-9.255
			c38.258,41.806,50.696,68.599,85.208,52.983c34.512-15.616,78.518-11.44,81.043,38.164S389.785,294.949,325.608,312.3
			c-64.177,17.352-64.161,78.759-149.1,66.368c-46.31-6.756-47.365-56.86-40.825-98.301
			C142.222,238.927,63.751,173.737,96.13,104.794z"/>
	</g>
</g>
<g id="Shadow_1_">
	<ellipse id="_x3C_Path_x3E__359_" style="fill:#F5F5F5;" cx="250" cy="416.238" rx="193.889" ry="11.323"/>
</g>
<g id="Device">
	<g>
		<path style="fill:#407BFF;" d="M361.421,412.071H208.623c-5.745,0-10.402-4.657-10.402-10.402V110.226
			c0-5.745,4.657-10.402,10.402-10.402h152.798c5.745,0,10.402,4.657,10.402,10.402v291.443
			C371.823,407.414,367.166,412.071,361.421,412.071z"/>
		<path style="opacity:0.4;fill:#FFFFFF;" d="M361.421,412.071H208.623c-5.745,0-10.402-4.657-10.402-10.402V110.226
			c0-5.745,4.657-10.402,10.402-10.402h152.798c5.745,0,10.402,4.657,10.402,10.402v291.443
			C371.823,407.414,367.166,412.071,361.421,412.071z"/>
		<path style="fill:#263238;" d="M365.965,110.284v290.768c0,2.392-1.922,4.25-4.314,4.25H207.933c-2.198,0-3.854-1.702-3.854-3.9
			V109.934c0-1.904,1.398-3.569,3.302-3.569h38.429c1.085,0,2.07,0.708,2.474,1.729l1.591,3.918
			c0.405,1.012,1.389,1.711,2.474,1.711h65.425c1.086,0,2.07-0.672,2.474-1.683l1.591-3.937c0.405-1.021,1.389-1.738,2.474-1.738
			h37.878C364.291,106.366,365.965,108.187,365.965,110.284z"/>
		<rect x="204.079" y="124.532" style="opacity:0.3;fill:#FFFFFF;enable-background:new    ;" width="161.885" height="261.497"/>
		<g>
			<g>
				
					<rect x="221.919" y="115.418" transform="matrix(-1 -1.224647e-16 1.224647e-16 -1 445.8382 233.501)" style="opacity:0.6;fill:#FFFFFF;enable-background:new    ;" width="2" height="2.666"/>
				
					<rect x="218.661" y="114.528" transform="matrix(-1 -1.224647e-16 1.224647e-16 -1 439.3207 232.6117)" style="opacity:0.6;fill:#FFFFFF;enable-background:new    ;" width="2" height="3.555"/>
				
					<rect x="215.402" y="113.639" transform="matrix(-1 -1.224647e-16 1.224647e-16 -1 432.8032 231.7225)" style="opacity:0.6;fill:#FFFFFF;enable-background:new    ;" width="2" height="4.444"/>
				
					<rect x="212.143" y="112.75" transform="matrix(-1 -1.224647e-16 1.224647e-16 -1 426.2857 230.8331)" style="opacity:0.6;fill:#FFFFFF;enable-background:new    ;" width="2" height="5.334"/>
			</g>
			<g>
				<rect x="346.458" y="114.445" style="opacity:0.6;fill:#FFFFFF;enable-background:new    ;" width="1.185" height="2.666"/>
				
					<rect x="348.458" y="113.472" transform="matrix(-1 -1.224647e-16 1.224647e-16 -1 706.359 231.5553)" style="opacity:0.6;fill:#FFFFFF;enable-background:new    ;" width="9.443" height="4.611"/>
			</g>
		</g>
		<rect x="208.074" y="129.657" style="fill:#407BFF;enable-background:new    ;" width="153.897" height="26.374"/>
		<rect x="208.074" y="158.289" style="fill:#FFFFFF;enable-background:new    ;" width="153.897" height="224.037"/>
		<g>
			<path style="opacity:0.3;enable-background:new    ;" d="M247.13,302.813h-25.582c-0.655,0-1.187-0.531-1.187-1.187l0,0
				c0-0.655,0.531-1.187,1.187-1.187h25.582c0.656,0,1.187,0.531,1.187,1.187l0,0C248.317,302.282,247.786,302.813,247.13,302.813z"
				/>
			<path style="opacity:0.3;enable-background:new    ;" d="M277.13,307.95h-55.582c-0.655,0-1.187-0.531-1.187-1.187l0,0
				c0-0.655,0.531-1.187,1.187-1.187h55.582c0.655,0,1.187,0.531,1.187,1.187l0,0C278.317,307.418,277.786,307.95,277.13,307.95z"/>
		</g>
		<path style="fill:none;stroke:#FFFFFF;stroke-miterlimit:10;" d="M286.297,397.698h-2.549c-1.069,0-1.935-0.866-1.935-1.935
			v-2.549c0-1.069,0.867-1.936,1.935-1.936h2.549c1.069,0,1.935,0.867,1.935,1.936v2.549
			C288.232,396.832,287.366,397.698,286.297,397.698z"/>
		<g>
			<path style="opacity:0.6;enable-background:new    ;" d="M284.995,106.748c0,1.227-0.995,2.222-2.222,2.222
				c-1.227,0-2.222-0.995-2.222-2.222c0-1.227,0.995-2.222,2.222-2.222C284,104.527,284.995,105.521,284.995,106.748z"/>
			<path style="opacity:0.6;enable-background:new    ;" d="M289.492,106.748c0,0.786-0.637,1.423-1.423,1.423
				c-0.786,0-1.424-0.637-1.424-1.423c0-0.786,0.637-1.424,1.424-1.424C288.855,105.325,289.492,105.962,289.492,106.748z"/>
		</g>
		<g>
			
				<polyline style="fill:none;stroke:#FFFFFF;stroke-width:2;stroke-linecap:round;stroke-linejoin:round;stroke-miterlimit:10;" points="
				220.836,148.202 215.479,142.844 220.836,137.486 			"/>
			<g>
				<path style="fill:#FFFFFF;" d="M354.54,138.344c0,0.652-0.528,1.18-1.18,1.18c-0.652,0-1.18-0.529-1.18-1.18
					s0.529-1.18,1.18-1.18C354.012,137.163,354.54,137.692,354.54,138.344z"/>
				<path style="fill:#FFFFFF;" d="M354.54,142.844c0,0.652-0.528,1.18-1.18,1.18c-0.652,0-1.18-0.529-1.18-1.18
					s0.529-1.18,1.18-1.18C354.012,141.663,354.54,142.192,354.54,142.844z"/>
				<path style="fill:#FFFFFF;" d="M354.54,147.344c0,0.652-0.528,1.18-1.18,1.18c-0.652,0-1.18-0.529-1.18-1.18
					s0.529-1.18,1.18-1.18C354.012,146.163,354.54,146.692,354.54,147.344z"/>
			</g>
		</g>
		<g>
			<path style="fill:#407BFF;" d="M284.436,228.999l-0.662-54.02c-29.634,0.363-53.721,25.047-53.358,54.681
				c0.363,29.634,25.047,53.721,54.681,53.358c15.326-0.188,29.869-6.889,39.97-18.416L284.436,228.999z"/>
			<path style="fill:#407BFF;" d="M284.436,228.999l0.413-54.022c-0.358-0.003-0.716-0.002-1.074,0.002
				c-25.882,0.317-48.078,19.192-52.55,44.686L284.436,228.999z"/>
			<path style="fill:#407BFF;" d="M284.436,228.999l40.191,36.1c8.903-9.912,13.832-22.776,13.832-36.1c0-0.027,0-0.054,0-0.081
				L284.436,228.999z"/>
			<path style="fill:#407BFF;" d="M284.436,228.999l19.393-50.423c-2.375-0.913-4.812-1.658-7.292-2.228
				c-2.48-0.57-4.997-0.964-7.533-1.179L284.436,228.999z"/>
			<path style="opacity:0.4;fill:#FFFFFF;" d="M284.436,228.999l0.413-54.022c-0.358-0.003-0.716-0.002-1.074,0.002
				c-25.882,0.317-48.078,19.192-52.55,44.686L284.436,228.999z"/>
			<path style="opacity:0.4;" d="M284.436,228.999l40.191,36.1c8.903-9.912,13.832-22.776,13.832-36.1c0-0.027,0-0.054,0-0.081
				L284.436,228.999z"/>
			<path style="opacity:0.7;fill:#FFFFFF;" d="M284.436,228.999l19.393-50.423c-2.375-0.913-4.812-1.658-7.292-2.228
				c-2.48-0.57-4.997-0.964-7.533-1.179L284.436,228.999z"/>
		</g>
		<path style="opacity:0.2;fill:#FFFFFF;enable-background:new    ;" d="M357.229,106.361l-153.15,153.15v-149.58
			c0-1.9,1.4-3.57,3.3-3.57h38.43c1.09,0,2.07,0.71,2.48,1.73l1.59,3.92c0.4,1.01,1.39,1.71,2.47,1.71h65.43
			c1.08,0,2.07-0.67,2.47-1.68l1.59-3.94c0.41-1.02,1.39-1.74,2.48-1.74H357.229z"/>
		<polygon style="opacity:0.2;fill:#FFFFFF;enable-background:new    ;" points="365.969,134.751 365.969,147.321 204.079,309.201 
			204.079,296.641 		"/>
		<rect x="325.268" y="297.844" style="fill:#407BFF;" width="18.314" height="12.701"/>
		<g>
			<path style="opacity:0.3;enable-background:new    ;" d="M247.13,322.826h-25.582c-0.655,0-1.187-0.531-1.187-1.187l0,0
				c0-0.655,0.531-1.187,1.187-1.187h25.582c0.656,0,1.187,0.531,1.187,1.187l0,0C248.317,322.295,247.786,322.826,247.13,322.826z"
				/>
			<path style="opacity:0.3;enable-background:new    ;" d="M277.13,327.962h-55.582c-0.655,0-1.187-0.531-1.187-1.187l0,0
				c0-0.655,0.531-1.187,1.187-1.187h55.582c0.655,0,1.187,0.531,1.187,1.187l0,0C278.317,327.431,277.786,327.962,277.13,327.962z"
				/>
		</g>
		<rect x="325.268" y="317.857" style="fill:#407BFF;" width="18.314" height="12.701"/>
		<g>
			<path style="opacity:0.3;enable-background:new    ;" d="M247.13,342.839h-25.582c-0.655,0-1.187-0.531-1.187-1.187l0,0
				c0-0.656,0.531-1.187,1.187-1.187h25.582c0.656,0,1.187,0.531,1.187,1.187l0,0C248.317,342.307,247.786,342.839,247.13,342.839z"
				/>
			<path style="opacity:0.3;enable-background:new    ;" d="M277.13,347.975h-55.582c-0.655,0-1.187-0.531-1.187-1.187l0,0
				c0-0.655,0.531-1.187,1.187-1.187h55.582c0.655,0,1.187,0.531,1.187,1.187l0,0C278.317,347.444,277.786,347.975,277.13,347.975z"
				/>
		</g>
		<rect x="325.268" y="337.869" style="fill:#407BFF;" width="18.314" height="12.701"/>
		<g>
			<path style="opacity:0.3;enable-background:new    ;" d="M247.13,362.851h-25.582c-0.655,0-1.187-0.531-1.187-1.187l0,0
				c0-0.656,0.531-1.187,1.187-1.187h25.582c0.656,0,1.187,0.531,1.187,1.187l0,0C248.317,362.32,247.786,362.851,247.13,362.851z"
				/>
			<path style="opacity:0.3;enable-background:new    ;" d="M277.13,367.987h-55.582c-0.655,0-1.187-0.531-1.187-1.187l0,0
				c0-0.655,0.531-1.187,1.187-1.187h55.582c0.655,0,1.187,0.531,1.187,1.187l0,0C278.317,367.456,277.786,367.987,277.13,367.987z"
				/>
		</g>
		<rect x="325.268" y="357.882" style="fill:#407BFF;" width="18.314" height="12.701"/>
		<rect x="325.268" y="297.844" style="opacity:0.4;" width="18.314" height="12.701"/>
		<rect x="325.268" y="337.869" style="opacity:0.4;fill:#FFFFFF;" width="18.314" height="12.701"/>
		<rect x="325.268" y="357.882" style="opacity:0.7;fill:#FFFFFF;" width="18.314" height="12.701"/>
	</g>
</g>
<g id="Character_1">
	<g>
		<g>
			<polygon style="fill:#B55B52;" points="167.541,402.282 173.621,400.073 170.273,385.421 164.193,387.629 			"/>
			<polygon style="fill:#B55B52;" points="119.582,410.357 126.037,410.357 127.868,395.41 121.414,395.41 			"/>
			<path style="fill:#263238;" d="M126.883,409.61h-7.869c-0.264,0-0.494,0.183-0.554,0.441l-1.333,5.737
				c-0.138,0.595,0.324,1.158,0.934,1.148c2.532-0.043,4.381-0.192,7.57-0.192c1.962,0,7.876,0.204,10.585,0.204
				c2.65,0,3.09-2.679,1.983-2.921c-4.962-1.088-8.695-2.588-10.273-4.019C127.643,409.749,127.27,409.61,126.883,409.61z"/>
			<path style="fill:#263238;" d="M173.843,398.837l-6.907,1.482c-0.259,0.055-0.446,0.283-0.45,0.546l-0.099,5.876
				c-0.01,0.609,0.545,1.065,1.14,0.927c2.483-0.577,6.054-1.495,9.185-2.166c3.662-0.785,5.932-1.526,10.226-2.447
				c2.596-0.557,2.78-3.33,1.645-3.334c-5.169-0.018-8.3,0.994-13.115-0.719C174.945,398.815,174.389,398.72,173.843,398.837z"/>
			<g>
				<path style="fill:#B65B52;" d="M146.063,213.992c3.151,1.232,6.46,2.501,9.656,3.645c1.607,0.564,3.207,1.103,4.757,1.555
					c1.516,0.426,3.127,0.818,4.072,0.863c1.041,0.044,2.659-0.188,4.21-0.555c1.577-0.362,3.218-0.814,4.857-1.325
					c3.276-1.017,6.654-2.169,9.956-3.318l2.306,4.262c-3.031,2.202-6.131,4.133-9.482,5.846c-1.677,0.845-3.393,1.656-5.242,2.344
					c-1.87,0.671-3.757,1.339-6.302,1.547c-1.323,0.091-2.472,0.001-3.524-0.113c-1.06-0.114-2.051-0.295-3.021-0.488
					c-1.933-0.388-3.771-0.868-5.573-1.408c-3.618-1.078-7.021-2.333-10.488-3.848L146.063,213.992z"/>
			</g>
			<g>
				<path style="fill:#263238;" d="M129.096,218.564c2.469,5.674,22.139,10.12,22.139,10.12l4.31-14.114
					c0,0-8.042-3.968-15.818-5.592C131.741,207.31,126.386,212.337,129.096,218.564z"/>
			</g>
			<path style="opacity:0.2;" d="M140.407,219.607c3.322-0.936,9.325,0.959,12.424,3.851l-1.597,5.228c0,0-7.556-1.706-13.888-4.356
				C137.099,222.562,136.602,220.679,140.407,219.607z"/>
			<g>
				<polygon style="opacity:0.2;" points="170.273,385.425 171.999,392.978 165.917,395.187 164.19,387.635 				"/>
				<polygon style="opacity:0.2;" points="121.412,395.414 127.869,395.414 126.922,403.119 120.464,403.119 				"/>
			</g>
			<g>
				<path style="fill:#263238;" d="M147.15,263.17c-10.2,2.07-28.9,5.85-33.86,6.85c-0.62-2.56-1.33-10.27-3.07-20.27
					c-0.26-1.51-0.55-3.07-0.87-4.67c-0.58-2.93-1.24-6.01-2.02-9.17c-0.37-1.51-0.77-3.04-1.2-4.58
					c-1.45-5.27-3.22-10.69-5.41-15.97c0,0,3.89-1.64,8.37-2.99c0.88-0.26,1.79-0.51,2.69-0.74c4.28-1.08,10.52-2.49,14.39-2.91
					c0.6-0.07,1.19-0.13,1.78-0.17c4.42-0.32,8.29-0.06,8.29-0.06S147.39,226.11,147.15,263.17z"/>
			</g>
			<g>
				<path style="fill:#B55B52;" d="M123.731,213.802c-5.19,1.16-9.1-0.21-11.95-2.17c1.44-2.04,1.34-5.43,0.66-8.81
					c-0.5-2.55-1.34-5.09-2.09-7.05c-0.09-0.23-0.18-0.44-0.26-0.65l10.28,5.76c-0.01,0.16-0.02,0.32-0.01,0.48
					c-0.07,1.81,0.09,3.61,0.92,4.97c0,0.01,0.01,0.01,0.01,0.01c0.82,1.36,2.3,2.28,4.88,2.37
					C127.361,210.081,127.691,212.902,123.731,213.802z"/>
				<path style="opacity:0.2;" d="M121.311,206.641c-2.76,0.16-6.64-1.46-8.87-3.82c-0.5-2.55-1.34-5.09-2.09-7.05l10.01,5.59
					c-0.07,1.81,0.09,3.61,0.92,4.97c0,0.01,0.01,0.01,0.01,0.01C121.291,206.441,121.301,206.542,121.311,206.641z"/>
			</g>
			<g>
				<g>
					<path style="fill:#407BFF;" d="M173.783,390.747l-10.297,3.735c0,0-8.044-35.417-12.319-55.05
						c-1.301-5.973-3.916-14.185-7.013-22.935c-3.908-11.023-8.571-22.885-12.336-32.159c-3.97-9.767-6.928-16.66-6.928-16.66
						l22.261-4.508c0,0,16.986,48.879,20.802,68.198C171.923,351.454,173.783,390.747,173.783,390.747z"/>
				</g>
				<g style="opacity:0.7;">
					<path style="fill:#FFFFFF;" d="M173.783,390.747l-10.297,3.735c0,0-8.044-35.417-12.319-55.05
						c-1.301-5.973-3.916-14.185-7.013-22.935c-3.908-11.023-8.571-22.885-12.336-32.159c-3.97-9.767-6.928-16.66-6.928-16.66
						l22.261-4.508c0,0,16.986,48.879,20.802,68.198C171.923,351.454,173.783,390.747,173.783,390.747z"/>
				</g>
			</g>
			<path style="opacity:0.2;" d="M144.154,316.497c-3.908-11.023-8.571-22.885-12.336-32.159l1.723-5.328
				C139.909,284.905,143.885,305.215,144.154,316.497z"/>
			<g>
				<g>
					<path style="fill:#407BFF;" d="M135.14,265.602c0,0,3.975,55.733,4.215,74.67c0.263,20.738-9.434,61.355-9.434,61.355h-11.822
						c0,0,4.722-36.648,3.15-57.194c-1.757-22.976-7.959-74.405-7.959-74.405L135.14,265.602z"/>
				</g>
				<g style="opacity:0.7;">
					<path style="fill:#FFFFFF;" d="M135.14,265.602c0,0,3.975,55.733,4.215,74.67c0.263,20.738-9.434,61.355-9.434,61.355h-11.822
						c0,0,4.722-36.648,3.15-57.194c-1.757-22.976-7.959-74.405-7.959-74.405L135.14,265.602z"/>
				</g>
			</g>
			<polygon style="fill:#263238;" points="131.333,401.882 117.412,401.882 117.454,397.724 131.987,396.884 			"/>
			<polygon style="fill:#263238;" points="175.158,390.614 162.827,394.895 161.486,390.916 174.971,386.005 			"/>
			<path style="fill:#407BFF;" d="M127.32,410.506c-0.059-0.015-0.104-0.064-0.114-0.124c-0.009-0.061,0.019-0.122,0.071-0.154
				c0.237-0.147,2.333-1.427,3.042-1.059c0.11,0.057,0.244,0.178,0.257,0.432c0.018,0.342-0.091,0.614-0.324,0.808
				c-0.295,0.246-0.755,0.329-1.246,0.329C128.41,410.738,127.767,410.614,127.32,410.506z M127.766,410.291
				c1.093,0.22,1.937,0.18,2.293-0.116c0.156-0.13,0.226-0.312,0.213-0.555c-0.006-0.119-0.054-0.158-0.095-0.18
				c-0.051-0.026-0.118-0.039-0.198-0.039C129.484,409.401,128.499,409.87,127.766,410.291z"/>
			<path style="fill:#407BFF;" d="M127.273,410.486c-0.047-0.03-0.073-0.084-0.068-0.14c0.007-0.079,0.18-1.942,0.936-2.554
				c0.196-0.16,0.416-0.224,0.653-0.197c0.365,0.045,0.459,0.27,0.483,0.401c0.129,0.719-1.176,2.134-1.848,2.497
				c-0.023,0.012-0.048,0.018-0.073,0.018C127.327,410.51,127.298,410.502,127.273,410.486z M128.333,408.028
				c-0.485,0.393-0.702,1.478-0.783,2.022c0.669-0.504,1.502-1.573,1.426-1.997c-0.007-0.039-0.023-0.13-0.222-0.155
				c-0.023-0.003-0.046-0.004-0.069-0.004C128.559,407.894,128.443,407.938,128.333,408.028z"/>
			<path style="fill:#407BFF;" d="M174.521,399.476c-0.022-0.061-0.003-0.129,0.048-0.171c0.257-0.21,2.532-2.047,3.391-1.779
				c0.165,0.051,0.279,0.17,0.329,0.345c0.083,0.293,0.039,0.558-0.132,0.788c-0.568,0.761-2.432,0.902-3.492,0.917
				c-0.007,0-0.014,0-0.021-0.001C174.588,399.568,174.54,399.53,174.521,399.476z M175.122,399.256
				c1.444-0.068,2.472-0.352,2.791-0.779c0.112-0.15,0.139-0.32,0.082-0.519c-0.022-0.077-0.06-0.119-0.127-0.139
				c-0.018-0.006-0.038-0.009-0.059-0.012C177.298,397.744,176.027,398.564,175.122,399.256z"/>
			<path style="fill:#407BFF;" d="M174.602,399.564c-0.05-0.022-0.084-0.068-0.09-0.122c-0.008-0.074-0.186-1.81,0.483-2.641
				c0.204-0.254,0.466-0.4,0.778-0.434c0.42-0.046,0.582,0.136,0.644,0.298c0.262,0.688-0.97,2.377-1.664,2.883
				c-0.032,0.023-0.071,0.033-0.109,0.029C174.63,399.573,174.616,399.569,174.602,399.564z M175.805,396.669
				c-0.231,0.025-0.418,0.13-0.571,0.321c-0.439,0.546-0.456,1.611-0.436,2.125c0.683-0.634,1.491-1.927,1.334-2.34
				c-0.01-0.026-0.035-0.091-0.167-0.107C175.923,396.662,175.871,396.662,175.805,396.669z"/>
			<g>
				<path style="fill:#B55B52;" d="M182.795,215.068l4.771-4.53l2.251,6.942c0,0-4.501,3.785-6.354,1.384L182.795,215.068z"/>
				<polygon style="fill:#B55B52;" points="193.936,209.164 193.845,215.79 189.816,217.48 187.566,210.538 				"/>
			</g>
			<g>
				<path style="fill:#B65B52;" d="M107.124,223.59c-1.017,4.158-1.996,8.524-2.766,12.759c-0.407,2.125-0.713,4.244-0.965,6.314
					c-0.237,2.049-0.342,4.116-0.226,5.783l0.058,0.582l0.079,0.492c0.042,0.243,0.162,0.54,0.076,0.442
					c-0.108-0.122-0.201-0.155-0.165-0.091c0.046,0.058,0.209,0.191,0.467,0.311c0.518,0.252,1.348,0.464,2.243,0.59
					c0.902,0.138,1.888,0.222,2.903,0.25c4.077,0.106,8.558-0.318,12.859-0.83l1.315,4.665c-4.422,1.789-8.849,3.126-13.794,3.752
					c-2.5,0.248-5.044,0.476-8.265-0.415c-0.809-0.246-1.682-0.585-2.576-1.154c-0.89-0.575-1.822-1.402-2.511-2.495
					c-0.652-1.078-0.908-1.852-1.18-2.692c-0.113-0.394-0.2-0.77-0.295-1.159l-0.201-1.091c-0.425-2.822-0.337-5.292-0.218-7.738
					c0.146-2.428,0.438-4.788,0.779-7.115c0.722-4.671,1.679-9.134,2.94-13.714L107.124,223.59z"/>
			</g>
			<g>
				<path style="fill:#263238;" d="M123.616,176.431c0,0,4.599,8.515,1.062,13.693c-3.538,5.178-9.55-11.587-9.55-11.587
					L123.616,176.431z"/>
				<path style="fill:#B55B52;" d="M127.688,194.943c-0.021,0.346-0.061,0.688-0.12,1.025c-0.199,1.226-0.637,2.363-1.242,3.37
					c-0.635,1.075-1.47,1.991-2.433,2.725c-1.753,1.334-3.93,2.041-6.153,1.847c-1.473-0.128-2.969-0.646-4.369-1.648
					c-4.041-2.849-4.663-6.858-6.259-13.548c-0.363-1.437-0.398-2.936-0.07-4.374c1.118-5.077,6.147-8.276,11.208-7.154
					C125.36,178.705,128.068,188.597,127.688,194.943z"/>
				<path style="fill:#263238;" d="M117.724,188.786c0.059,0.553,0.464,0.945,0.83,0.88c0.366-0.065,0.571-0.566,0.477-1.116
					c-0.094-0.55-0.473-0.945-0.83-0.88C117.844,187.734,117.629,188.227,117.724,188.786z"/>
				<path style="fill:#263238;" d="M123.957,187.682c0.059,0.553,0.473,0.945,0.83,0.88c0.357-0.064,0.571-0.566,0.477-1.116
					c-0.094-0.55-0.473-0.945-0.83-0.88C124.076,186.63,123.866,187.159,123.957,187.682z"/>
				<path style="fill:#A02724;" d="M122.024,188.304c0.955,1.57,2.122,3.001,3.469,4.251c-0.67,0.684-1.608,1.037-2.562,0.964
					L122.024,188.304z"/>
				<path style="fill:#263238;" d="M125.796,184.61c-0.095,0.077-0.225,0.098-0.339,0.054c-0.768-0.33-1.647-0.279-2.371,0.139
					c-0.148,0.104-0.351,0.068-0.455-0.079c-0.104-0.148-0.068-0.352,0.079-0.455c0,0,0.001-0.001,0.001-0.001
					c0.902-0.551,2.015-0.631,2.987-0.214c0.169,0.062,0.256,0.25,0.194,0.419c-0.001,0.003-0.002,0.005-0.003,0.007
					C125.865,184.528,125.834,184.572,125.796,184.61z"/>
				<path style="fill:#263238;" d="M116.049,186.511c-0.066,0.01-0.133-0.002-0.192-0.032c-0.141-0.113-0.164-0.318-0.051-0.459
					c0.001-0.002,0.003-0.004,0.005-0.006c0.655-0.834,1.676-1.296,2.735-1.24c0.179,0.02,0.308,0.182,0.288,0.361l0,0.001
					c-0.025,0.178-0.184,0.304-0.362,0.288l0,0c-0.837-0.02-1.635,0.357-2.151,1.016
					C116.245,186.503,116.146,186.529,116.049,186.511z"/>
				<path style="fill:#263238;" d="M110.584,179.385l1.031,2.874c-0.852,0.736-1.189,1.963-0.478,3.026
					c1.518,2.271,0.981,6.447-0.578,8.417c0,0-0.304-1.064-1.154-0.603c-0.851,0.462,0.671,6.014,3.051,8.288
					c0,0-3.23-1.812-6.079-7.358c-2.635-5.129-3.838-9.629-3.196-11.989L110.584,179.385z"/>
				<path style="fill:#B55B52;" d="M105.136,194.788c1.022,1.399,2.558,2.336,4.27,2.604c2.269,0.34,3.121-1.761,2.259-3.758
					c-0.783-1.768-2.907-4.138-5.072-3.542C104.428,190.688,103.903,193.054,105.136,194.788z"/>
				<path style="fill:#263238;" d="M103.012,183.497c0,0-1.568-3.726,3.891-8.091c5.459-4.366,12.918-2.342,16.438-5.84
					c3.521-3.497,5.991,7.218-2.485,10.319C112.381,182.986,103.012,183.497,103.012,183.497z"/>
				<g>
					<path style="fill:#263238;" d="M122.805,195.527c-0.717,0.813-1.677,2.453-1.677,2.453c-0.164-0.06-0.328-0.12-0.489-0.189
						c-2.207-0.872-2.943-2.006-3.089-2.998c-0.078-0.543,0.027-1.048,0.165-1.439c0.154-0.454,0.367-0.743,0.367-0.743
						c0.894,1.161,2.889,2.133,3.976,2.607C122.51,195.421,122.805,195.527,122.805,195.527z"/>
					<path style="fill:#FFFFFF;" d="M122.057,195.218l-0.513,0.711c-2.077-0.826-3.428-1.687-3.83-2.574
						c0.154-0.454,0.367-0.743,0.367-0.743C118.975,193.772,120.97,194.744,122.057,195.218z"/>
					<path style="fill:#A02724;" d="M120.638,197.791c-2.207-0.872-2.943-2.006-3.089-2.998c0.741,0.326,1.597,0.802,2.259,1.454
						C120.316,196.744,120.542,197.29,120.638,197.791z"/>
				</g>
			</g>
			<g>
				<path style="fill:#FFFFFF;" d="M123.83,213.774c0,0-1.117,2.234-2.498,4.501c-2.904-0.838-9.809-3.262-10.294-6.754
					c0.129-1.075,1.329-1.964,1.329-1.964S117.009,212.414,123.83,213.774z"/>
			</g>
			<g>
				<path style="fill:#FFFFFF;" d="M123.83,213.774c0,0,2.403,1.235,4.199,3.073c1.606-1.713-0.816-7.889-1.677-8.446
					c-1.727-0.641-2.736-0.313-2.736-0.313S126.675,212.395,123.83,213.774z"/>
			</g>
			<g>
				
					<rect x="122.342" y="224.423" transform="matrix(0.9986 -0.0532 0.0532 0.9986 -12.3736 7.0309)" style="fill:#407BFF;" width="7.319" height="23.456"/>
				
					<rect x="131.183" y="216.82" transform="matrix(0.9986 -0.0531 0.0531 0.9986 -11.954 7.4881)" style="fill:#407BFF;" width="7.319" height="23.456"/>
				
					<rect x="140.331" y="204.968" transform="matrix(0.9986 -0.0531 0.0531 0.9986 -11.8432 7.9717)" style="fill:#407BFF;" width="7.319" height="43.469"/>
				
					<rect x="149.776" y="208.718" transform="matrix(0.9986 -0.0532 0.0532 0.9986 -12.032 8.481)" style="fill:#407BFF;" width="7.319" height="43.469"/>
				
					<rect x="158.802" y="214.609" transform="matrix(0.9986 -0.0531 0.0531 0.9986 -11.7976 8.9527)" style="fill:#407BFF;" width="7.319" height="23.456"/>
				
					<rect x="175.614" y="177.039" transform="matrix(0.9986 -0.0531 0.0531 0.9986 -10.0965 9.8014)" style="fill:#407BFF;" width="7.319" height="35.464"/>
				
					<rect x="167.244" y="199.504" transform="matrix(0.9986 -0.0532 0.0532 0.9986 -10.9858 9.3824)" style="fill:#407BFF;" width="7.319" height="23.456"/>
				
					<rect x="184.384" y="164.103" transform="matrix(0.9986 -0.0531 0.0531 0.9986 -9.6093 10.2547)" style="fill:#407BFF;" width="7.319" height="43.469"/>
				<g>
					
						<rect x="121.772" y="224.438" transform="matrix(0.9986 -0.0531 0.0531 0.9986 -11.8017 6.9836)" style="opacity:0.4;fill:#FFFFFF;" width="7.319" height="1.989"/>
					
						<rect x="130.674" y="216.834" transform="matrix(0.9986 -0.0531 0.0531 0.9986 -11.4465 7.4476)" style="opacity:0.4;fill:#FFFFFF;" width="7.319" height="4.295"/>
					
						<rect x="139.412" y="204.993" transform="matrix(0.9986 -0.0531 0.0531 0.9986 -10.9274 7.8984)" style="opacity:0.4;fill:#FFFFFF;" width="7.319" height="8.91"/>
					
						<rect x="148.949" y="208.74" transform="matrix(0.9986 -0.0532 0.0532 0.9986 -11.2072 8.4151)" style="opacity:0.4;fill:#FFFFFF;" width="7.319" height="12.346"/>
					
						<rect x="158.587" y="214.614" transform="matrix(0.9986 -0.0531 0.0531 0.9986 -11.5831 8.9356)" style="opacity:0.4;fill:#FFFFFF;" width="7.319" height="15.359"/>
					
						<rect x="175.184" y="177.05" transform="matrix(0.9986 -0.0531 0.0531 0.9986 -9.6677 9.767)" style="opacity:0.4;fill:#FFFFFF;" width="7.319" height="19.284"/>
					
						<rect x="167.029" y="199.51" transform="matrix(0.9986 -0.0531 0.0531 0.9986 -10.769 9.3628)" style="opacity:0.4;fill:#FFFFFF;" width="7.319" height="15.375"/>
					
						<rect x="183.887" y="164.116" transform="matrix(0.9986 -0.0531 0.0531 0.9986 -9.1139 10.2151)" style="opacity:0.4;fill:#FFFFFF;" width="7.319" height="24.771"/>
				</g>
			</g>
			<path style="fill:#B55B52;" d="M120.086,250.398l4.603-4.653l2.866,7.77c0,0-4.792,3.08-6.698,0.695L120.086,250.398z"/>
			<polygon style="fill:#B55B52;" points="130.01,245.059 132.081,251.593 127.555,253.516 124.689,245.746 			"/>
			<path style="opacity:0.2;" d="M109.35,245.08c-0.58-2.93-1.24-6.01-2.02-9.17c-0.37-1.51-0.77-3.04-1.2-4.58
				c1.43-2.13,1.647-4.735,2.868-5.495C108.997,225.835,114.35,241.64,109.35,245.08z"/>
			<g>
				<path style="fill:#263238;" d="M98.976,216.302c-5.062,3.56-6.735,21.942-6.735,21.942l15.713,1.906
					c0,0,1.912-8.166,2.089-16.164C110.235,215.272,105.108,211.99,98.976,216.302z"/>
			</g>
		</g>
	</g>
</g>
<g id="Character_3">
	<g>
		<g>
			<g>
				<path style="fill:#E9B376;" d="M357,236.798c-0.126,0.164-0.291,0.363-0.4,0.486l-0.182,0.204l-0.357,0.379l-0.565,0.539
					c-0.323,0.282-0.676,0.582-0.975,0.804c-0.621,0.472-1.197,0.824-1.772,1.167c-1.108,0.632-2.207,1.104-3.227,1.467
					c-1.039,0.393-2.036,0.627-3.014,0.855l-1.447,0.288l-1.405,0.175c-0.946,0.126-1.823,0.144-2.734,0.21
					c-0.882-0.001-1.763-0.003-2.627-0.032c-0.849-0.059-1.706-0.077-2.541-0.178l-2.468-0.325l-1.014-0.133
					c-0.871-0.115-1.697-0.429-2.396-0.866c-3.182-2.007-5.143-4.858-6.235-7.367c-1.127-2.551-1.577-4.952-1.839-7.217
					c-0.213-2.273-0.194-4.436,0.013-6.539c0.099-1.052,0.258-2.088,0.439-3.115c0.197-1.053,0.425-1.988,0.742-3.143
					c0.629-2.292,2.997-3.641,5.289-3.012c1.431,0.393,2.494,1.463,2.938,2.769l0.272,0.821c0.102,0.307,0.21,0.778,0.32,1.177
					l0.323,1.247c0.208,0.829,0.447,1.648,0.682,2.447c0.475,1.598,0.999,3.124,1.598,4.474c0.301,0.67,0.598,1.299,0.923,1.855
					c0.33,0.547,0.673,1.012,0.983,1.379c0.647,0.757,1.165,0.857,1.211,0.717l-3.41-0.999l1.855-0.182l1.784-0.213
					c1.152-0.182,2.264-0.368,3.248-0.604c1.007-0.234,1.866-0.507,2.514-0.767c0.34-0.113,0.55-0.257,0.712-0.307
					c0.044-0.024,0.087-0.043,0.047,0c-0.002,0.017-0.084,0.077-0.126,0.135c-0.059,0.054-0.117,0.11-0.168,0.172l-0.169,0.186
					l-0.089,0.106c-0.078,0.09-0.215,0.254-0.312,0.384c2.915-3.75,8.318-4.426,12.067-1.511
					C359.238,227.646,359.915,233.049,357,236.798z"/>
			</g>
		</g>
		<g>
			<path style="fill:#407BFF;" d="M355.278,241.535c-2.029,1.681-3.977,2.502-5.664,2.863c-3.226,0.69-5.495-0.331-5.495-0.331
				c-1.277-1.902-2.189-4.447-2.785-7.094c-1.215-5.391-1.091-11.241,0.017-13.107c0,0,13.176-6.831,20.909-4.884
				C370.469,221.04,361.704,236.211,355.278,241.535z"/>
		</g>
		<path style="fill:#407BFF;" d="M353.524,209.811l-15.805,10.348c-4.013-6.137-6.133-13.323-6.079-20.66
			c0-1.49,0.102-2.983,0.293-4.461l18.234,2.32c-0.343,0.734-0.64,1.993,0.603,2.946c0,0-2.059,0.322-2.069,2.864
			c-0.02,2.54,2.383,3.216,2.383,3.216S349.98,208.867,353.524,209.811z"/>
		<path style="opacity:0.7;fill:#FFFFFF;" d="M353.524,209.811l-15.805,10.348c-4.013-6.137-6.133-13.323-6.079-20.66
			c0-1.49,0.102-2.983,0.293-4.461l18.234,2.32c-0.343,0.734-0.64,1.993,0.603,2.946c0,0-2.059,0.322-2.069,2.864
			c-0.02,2.54,2.383,3.216,2.383,3.216S349.98,208.867,353.524,209.811z"/>
		<path style="fill:#EBB376;" d="M323.513,213.72l3.089,3.886c4.483,2.668,6.916-3.688,6.916-3.688l3.545-3.685
			c0.815-0.876,0.788-2.317-0.063-3.405l-2.139-2.733c-0.975-1.246-2.668-1.582-3.753-0.745l-3.579,2.983
			c-0.71,0.548-1.273,1.262-1.639,2.08L323.513,213.72z"/>
		<path style="opacity:0.2;" d="M349.614,244.398c-3.226,0.69-5.495-0.331-5.495-0.331c-1.277-1.902-2.189-4.447-2.785-7.094
			c4.728-2.705,10.3-3.855,10.3-3.855C353.318,238.028,352.06,241.809,349.614,244.398z"/>
		<g>
			<polygon style="fill:#EBB376;" points="362.958,396.909 374.482,394.462 376.65,408.225 367.024,410.284 			"/>
			<polygon style="opacity:0.2;" points="362.962,396.913 374.49,394.465 375.701,402.172 365.237,404.404 			"/>
		</g>
		<path style="fill:#263238;" d="M369.84,344.474c3.833-17.846,11.753-36.473,4.268-53.469l-32.881-0.104
			c0,0,2.509,39.072,3.662,55.538c1.196,17.12,18.54,55.915,18.54,55.915l13.174-2.894
			C376.603,399.46,372.882,363.584,369.84,344.474z"/>
		<path style="fill:#263238;" d="M379.279,412.05l-3.036,0.675l-0.881-0.869l-1.108,1.322l-5.582,2.423
			c-2.046,0.888-4.252,1.346-6.482,1.346h-4.585c-0.268-1.537,0.74-3.543,0.74-3.543s4.424-0.773,6.706-4.453
			c0.252-0.406,0.785-0.563,1.301-0.576c2.112-0.053,7.669-0.367,10.439-2.185c0.264-0.173,0.654-0.008,0.721,0.31
			C378.063,409.127,379.279,412.05,379.279,412.05z"/>
		<path style="opacity:0.4;fill:#FFFFFF;" d="M369.84,344.474c3.833-17.846,11.753-36.473,4.268-53.469l-32.881-0.104
			c0,0,2.509,39.072,3.662,55.538c1.196,17.12,18.54,55.915,18.54,55.915l13.174-2.894
			C376.603,399.46,372.882,363.584,369.84,344.474z"/>
		<path style="opacity:0.2;" d="M370.214,342.776c2.354-10.327,5.858-20.893,6.778-31.22
			C364.53,297.962,366.104,325.689,370.214,342.776z"/>
		<g>
			<polygon style="fill:#EBB376;" points="389.652,398.615 401.444,398.727 401.96,412.632 392.109,412.553 			"/>
			<polygon style="opacity:0.2;" points="389.656,398.62 401.451,398.732 401.738,406.518 391.03,406.425 			"/>
		</g>
		<path style="fill:#263238;" d="M402.478,344.474c0.95-17.846,2.245-44.543-3.737-52.749l-36.719-0.824
			c0,0,10.21,39.072,14.023,55.538c3.962,17.12,13.673,57.594,13.673,57.594l12.746,0.034
			C402.464,404.066,407.271,364.841,402.478,344.474z"/>
		<path style="fill:#263238;" d="M403.629,416.937h-2.563l-0.695-1.04l-1.345,1.05h-15.467c-0.303-1.537,0.66-3.543,0.66-3.543
			s4.625-0.42,6.405-2.726c0.137-0.178,0.352-0.274,0.571-0.228c1.54,0.323,7.658,1.479,11.026,0.267
			c0.365-0.131,0.75,0.116,0.756,0.504C403.019,413.885,403.629,416.937,403.629,416.937z"/>
		<path style="opacity:0.4;fill:#FFFFFF;" d="M402.478,344.474c0.95-17.846,2.245-44.543-3.737-52.749l-36.719-0.824
			c0,0,10.21,39.072,14.023,55.538c3.962,17.12,13.673,57.594,13.673,57.594l12.746,0.034
			C402.464,404.066,407.271,364.841,402.478,344.474z"/>
		<path style="fill:#263238;" d="M366.487,191.474c0,2.475,3.307,4.124,7.042,3.596c3.735-0.528,4.5-7.253,1.879-8.489
			C372.787,185.345,366.487,191.474,366.487,191.474z"/>
		<path style="fill:#407BFF;" d="M403.33,231.7c-0.44,2.2-0.81,4.43-1.12,6.66c-1.02,7.12-1.46,14.29-1.67,20.98
			c-0.49,15.66,0.31,28.71-1.8,32.39c0,0-36.34,0.63-57.51-0.83c-5.8-27.84,5.6-44.89,11.34-66.63c0.98-3.72,4.97-5.85,8.79-6.25
			c9.72-1.01,22.7-0.89,32.77,0.52C400.41,219.42,404.56,225.48,403.33,231.7z"/>
		<path style="fill:#EBB376;" d="M366.522,219.91c0.473-1.024,1.862-2.594,3.305-3.129c0.512-1.258,0.581-2.663,0.111-4.309
			l16.142-5.14c-1.305,5.336-2.326,9.552-0.342,12.143c-3.172,1.937-8.986,5.414-15.327,5.233
			C364.07,224.529,365.488,222.148,366.522,219.91z"/>
		<path style="opacity:0.2;" d="M370.067,212.971l12.114-0.711c-3.789,4.047-9.529,5.57-12.148,3.924
			C370.308,215.213,370.333,214.158,370.067,212.971z"/>
		<g>
			<path style="fill:#407BFF;" d="M370.033,224.695l2.619-2.18l3.521,1.766C376.173,224.28,373.926,226.387,370.033,224.695z"/>
			<path style="opacity:0.3;" d="M370.033,224.695l2.619-2.18l3.521,1.766C376.173,224.28,373.926,226.387,370.033,224.695z"/>
		</g>
		<path style="fill:#EBB376;" d="M389.228,199.163c-1.925,6.946-3.394,11.627-8.41,13.86c-9.966,4.437-14.42-0.269-14.773-7.602
			c-0.317-6.6,2.885-16.851,10.888-18.345C384.819,185.604,391.153,192.217,389.228,199.163z"/>
		<path style="fill:#263238;" d="M383.708,195.548c-2.148,2.048-3.003,11.071,0.242,10.924c3.245-0.148,6.588-0.85,6.588-0.85
			s4.129-1.559,1.868-7.753C390.144,191.674,383.708,195.548,383.708,195.548z"/>
		<path style="fill:#EBB376;" d="M390.657,207.3c-1.4,1.539-3.384,2.28-5.099,2.323c-2.578,0.065-3.261-2.399-2.036-4.508
			c1.103-1.898,3.773-4.22,6.116-3.279C391.948,202.763,392.258,205.541,390.657,207.3z"/>
		<path style="fill:#263238;" d="M375.686,198.244c-0.115,0.619-0.537,1.056-0.941,0.977c-0.404-0.079-0.638-0.645-0.523-1.263
			c0.115-0.619,0.537-1.056,0.941-0.977C375.567,197.06,375.802,197.626,375.686,198.244z"/>
		<path style="fill:#263238;" d="M369.261,197.213c-0.115,0.619-0.537,1.056-0.941,0.977c-0.404-0.079-0.638-0.645-0.523-1.264
			c0.115-0.619,0.537-1.056,0.941-0.977C369.142,196.028,369.376,196.594,369.261,197.213z"/>
		<path style="fill:#D58745;" d="M371.296,198.101l-0.928,5.209c0,0-0.925,0.042-1.84-0.259c-0.526-0.173-0.619-0.895-0.165-1.212
			C369.952,200.731,371.296,198.101,371.296,198.101z"/>
		<path style="fill:#263238;" d="M379.308,197.094c0.061,0.004,0.124-0.008,0.183-0.037c0.183-0.09,0.257-0.311,0.165-0.495
			c-0.913-1.84-2.605-2.07-2.677-2.079c-0.203-0.025-0.386,0.119-0.409,0.322c-0.023,0.202,0.121,0.387,0.323,0.413l0,0
			c0.056,0.008,1.373,0.2,2.102,1.669C379.058,197.011,379.179,197.086,379.308,197.094z"/>
		<path style="fill:#263238;" d="M367.107,195.065c0.118,0.021,0.243-0.016,0.331-0.11c1.112-1.186,2.427-0.975,2.482-0.965
			c0.201,0.035,0.391-0.099,0.425-0.3c0.034-0.201-0.1-0.392-0.3-0.429c-0.073-0.012-1.755-0.302-3.148,1.184
			c-0.139,0.148-0.131,0.383,0.018,0.523C366.971,195.021,367.038,195.053,367.107,195.065z"/>
		<path style="fill:#FFFFFF;" d="M384.631,215.879c0,0-5.199,6.312-11.978,6.636c3.947,1.869,4.611,6.298,4.611,6.298
			s8.456-2.577,10.054-11.574C386.309,215.794,384.631,215.879,384.631,215.879z"/>
		<g>
			<path style="fill:#407BFF;" d="M370.033,224.695l-2.968-2.658l-3.78,1.122C363.284,223.158,366.14,226.387,370.033,224.695z"/>
			<path style="opacity:0.3;" d="M370.033,224.695l-2.968-2.658l-3.78,1.122C363.284,223.158,366.14,226.387,370.033,224.695z"/>
		</g>
		<path style="fill:#FFFFFF;" d="M369.827,216.781c0,0-2.638,3.053-2.763,5.255c-3.172,0.897-4.697,5.542-4.697,5.542
			s-0.579-6.643,4.396-10.225C367.972,216.559,369.827,216.781,369.827,216.781z"/>
		<path style="fill:#263238;" d="M367.37,205.23c0,0,2.689-0.212,9.992,0.873c-1.182,2.068-3.045,3.622-6.779,3.031
			C366.848,208.544,367.37,205.23,367.37,205.23z"/>
		<path style="fill:#A02724;" d="M372.573,207.667c-1.802-0.286-3.167-0.068-4.232,0.456c0.474,0.465,1.194,0.843,2.238,1.008
			c1.802,0.285,3.158,0.077,4.223-0.457C374.328,208.209,373.617,207.832,372.573,207.667z"/>
		<path style="fill:#FFFFFF;" d="M367.711,205.217c0.138,0.499,0.273,0.998,0.982,1.259c1.506,0.33,5.465,0.476,6.543,0.413
			c0.686-0.01,1.291-0.154,1.81-0.832C371.421,205.235,368.619,205.198,367.711,205.217z"/>
		<path style="fill:#EBB376;" d="M382.946,267.711l-0.929,4.877c-2.729,4.446-7.838-0.051-7.838-0.051l-3.33-1.17
			c-1.129-0.397-1.775-1.685-1.527-3.044l0.624-3.415c0.284-1.556,1.627-2.641,2.977-2.404l3.034,0.533
			c0.883,0.155,1.713,0.526,2.418,1.08L382.946,267.711z"/>
		<path style="fill:#263238;" d="M374.802,189.301c0,0,1.603-1.78,3.33,0c1.727,1.78-1.819,5.714,4.8,8.544
			c6.619,2.83,9.033,1.061,10.15,3.775c0,0,1.553-6.385,0-11.429c-1.553-5.044-13.512-6.033-14.95-5.044
			c0,0-1.796-1.676-5.029-0.344c-3.233,1.333-7.923,6.112-6.305,7.775c1.618,1.663,2.246-0.211,3.235-1.794
			C371.022,189.202,372.652,186.433,374.802,189.301z"/>
		<g>
			<polygon style="fill:#407BFF;" points="376.173,209.624 378.132,209.258 377.8,210.904 			"/>
			<polygon style="fill:#407BFF;" points="372.013,211.554 372.378,210.574 373.397,211.554 			"/>
			<g style="opacity:0.7;">
				<polygon style="fill:#FFFFFF;" points="376.173,209.624 378.132,209.258 377.8,210.904 				"/>
				<polygon style="fill:#FFFFFF;" points="372.013,211.554 372.378,210.574 373.397,211.554 				"/>
			</g>
		</g>
		<path style="opacity:0.2;" d="M402.21,238.36c-1.02,7.12-1.46,14.29-1.67,20.98c-6.62-7.85-7.46-20.46-7.46-20.46
			C396.16,237.81,399.26,237.73,402.21,238.36z"/>
		<g>
			<g>
				<path style="fill:#E9B376;" d="M405.945,228.578l0.814,1.015l0.715,0.925c0.463,0.615,0.904,1.238,1.339,1.86
					c0.877,1.242,1.683,2.526,2.477,3.825c1.556,2.616,3.011,5.326,4.227,8.241c1.24,2.899,2.293,5.976,2.966,9.34
					c0.701,3.337,0.986,7.038,0.391,10.982l-0.072,0.479c-0.105,0.699-0.334,1.377-0.639,1.974
					c-1.431,2.771-3.551,4.688-5.489,5.895c-1.966,1.232-3.827,1.939-5.588,2.471c-1.764,0.537-3.447,0.839-5.086,1.054
					c-1.636,0.207-3.223,0.334-4.785,0.376c-3.122,0.073-6.134-0.092-9.098-0.431c-2.986-0.357-5.818-0.824-8.82-1.588
					c-2.306-0.587-3.699-2.932-3.112-5.238c0.453-1.778,1.951-3.014,3.671-3.217l0.244-0.027c2.574-0.298,5.341-0.583,7.951-0.966
					c2.63-0.377,5.217-0.808,7.654-1.386c2.428-0.538,4.745-1.287,6.499-2.127c0.868-0.415,1.572-0.887,1.908-1.254
					c0.355-0.379,0.268-0.518,0.055-0.281l-0.711,2.453c-0.004-1.513-0.32-3.342-0.923-5.32c-0.293-0.982-0.673-1.998-1.108-3.02
					c-0.411-1.028-0.884-2.07-1.409-3.111c-1.047-2.077-2.228-4.183-3.522-6.246c-0.635-1.039-1.32-2.056-1.992-3.074l-1.027-1.5
					l-0.944-1.343l-0.313-0.444c-2.729-3.881-1.794-9.24,2.087-11.969C398.028,224.307,403.129,225.083,405.945,228.578z"/>
			</g>
			<g>
				<path style="fill:#407BFF;" d="M396.949,219.328c7.512,2.695,14.602,15.415,14.602,15.415
					c-0.353,4.633-7.688,15.122-12.915,17.389c0,0-5.596-4.415-7.786-11.767C388.469,232.369,393.082,220.48,396.949,219.328z"/>
			</g>
		</g>
	</g>
</g>
<g id="Character_2">
	<g>
		<g>
			<path style="fill:#B55B52;" d="M261.404,213.615c0.119,3.848-1.526,10.049-4.543,12.017c0,0,1.945,4.155,8.871,5.496
				c7.616,1.475,4.26-3.054,4.26-3.054c-3.993-1.792-3.38-4.837-2.18-7.576L261.404,213.615z"/>
			<g>
				<path style="fill:#263238;" d="M275.683,207.999c0.038,0.509,0.343,0.909,0.68,0.893c0.337-0.016,0.579-0.442,0.54-0.951
					c-0.038-0.509-0.343-0.909-0.68-0.893C275.886,207.064,275.644,207.49,275.683,207.999z"/>
				<path style="fill:#263238;" d="M276.076,207.083l1.212-0.412C277.288,206.672,276.725,207.657,276.076,207.083z"/>
				<path style="fill:#A02724;" d="M276.154,208.473c0,0,1.04,2.15,2.083,3.162c-0.633,0.66-1.812,0.428-1.812,0.428
					L276.154,208.473z"/>
				<path style="fill:#263238;" d="M276.12,204.57c-0.047,0.011-0.097,0.012-0.147-0.001c-1.308-0.339-2.151,0.362-2.186,0.392
					c-0.127,0.108-0.316,0.094-0.424-0.032c-0.108-0.126-0.095-0.315,0.03-0.424c0.044-0.038,1.107-0.941,2.732-0.52
					c0.161,0.042,0.258,0.206,0.216,0.367C276.311,204.464,276.224,204.545,276.12,204.57z"/>
				<path style="fill:#B55B52;" d="M258.33,207.425c0.861,6.234,1.091,8.887,4.53,11.944c5.174,4.598,12.726,2.391,13.766-3.923
					c0.936-5.683-0.629-14.923-7.014-17.115C263.321,196.171,257.469,201.191,258.33,207.425z"/>
				<path style="fill:#263238;" d="M271.853,197.133c0,0,4.971-2.543,6.329,3.066c0.912,3.768-5.129,9.62-5.129,9.62
					s-0.903,7.793-9.804,9.072c-2.592,0.373-4.873-1.366-8.703,0.89c-4.648,2.738-14.616,2.83-16.11-5.459
					c0,0,1.275,2.392,4.044,1.898c0,0-4.909-2.104-3.363-6.402c1.385-3.849,8.866-4.336,8.866-4.336s-4.078-1.545-6.254-0.515
					c0,0,1.401-3.286,7.441-3.516c2.866-0.109,5.667,0.901,8.343-2.525C261.433,193.908,270.729,193.177,271.853,197.133z"/>
				<path style="fill:#B55B52;" d="M270.922,207.713c0.26,1.114,1.033,2.177,1.867,2.881c1.256,1.058,2.283,0.448,2.27-0.801
					c-0.012-1.124-0.681-3.029-2.102-3.632C271.556,205.566,270.624,206.439,270.922,207.713z"/>
			</g>
			<g>
				<path style="fill:#B55B52;" d="M247.933,235.835c-1.399,2.899-2.899,5.555-4.673,8.215c-0.884,1.321-1.804,2.639-2.862,3.924
					c-1.079,1.278-2.201,2.555-3.807,3.775c-0.826,0.594-1.75,1.229-3.215,1.639c-0.671,0.206-1.8,0.273-2.521,0.133
					c-0.729-0.127-1.339-0.326-1.836-0.553c-1.986-0.917-3.234-1.993-4.479-3.103c-2.417-2.234-4.36-4.617-6.143-7.247l2.817-2.561
					c2.316,1.758,4.701,3.571,7.015,5.044c1.136,0.706,2.367,1.392,3.182,1.584c0.2,0.053,0.321,0.047,0.333,0.034
					c-0.021-0.019-0.036-0.024-0.16-0.034c-0.121,0.014-0.112,0.001-0.132-0.001c-0.017-0.012,0.341-0.22,0.691-0.55
					c0.742-0.662,1.599-1.677,2.376-2.755c0.791-1.083,1.574-2.244,2.312-3.451c1.46-2.405,2.902-4.996,4.196-7.468L247.933,235.835
					z"/>
			</g>
			<path style="fill:#407BFF;" d="M243.947,224.975c-4.138,1.547-7.738,12.039-7.738,12.039l9.339,5.824
				c0,0,7.069-7.359,6.021-13.741C251.046,225.913,248.016,223.454,243.947,224.975z"/>
			<g>
				<path style="fill:#B55B52;" d="M222.201,242.588l-1.824-6.694l-3.246,3.913c0,0,0.274,3.535,2.944,3.811L222.201,242.588z"/>
				<polygon style="fill:#B55B52;" points="218.061,234.752 214.71,235.994 217.131,239.807 220.377,235.894 				"/>
			</g>
			<path style="opacity:0.7;fill:#FFFFFF;" d="M251.545,231.995c-0.89,5.52-6,10.84-6,10.84l-3.71-2.31l-5.63-3.51
				c0,0,3.6-10.49,7.74-12.04c4.07-1.52,7.1,0.94,7.62,4.12C251.725,230.055,251.695,231.025,251.545,231.995z"/>
			<path style="opacity:0.1;" d="M251.545,231.995c-0.89,5.52-6,10.84-6,10.84l-3.71-2.31
				C242.985,236.285,248.165,232.445,251.545,231.995z"/>
			<path style="fill:#407BFF;" d="M243.942,263.264c4.932,0.953,15.393,2.981,25.51,4.944c12.055-35.488,9.17-36.636,9.17-36.636
				s-2.559-1.425-5.789-2.688c-0.124-0.049-0.239-0.09-0.346-0.13c-1.63-0.595-1.975-0.684-4.16-1.32
				c-3.757-0.888-7.256-1.613-11.584-2.24c-0.278-0.041-0.556-0.081-0.826-0.114c-0.785-0.098-1.561-0.179-2.312-0.253
				c-0.507-0.057-1.013-0.09-1.494-0.122c-0.571-0.033-1.126-0.065-1.648-0.09c-2.79-0.138-4.784-0.098-4.784-0.098
				C247.14,246.665,246.074,253.026,243.942,263.264z"/>
			<path style="opacity:0.7;fill:#FFFFFF;" d="M243.942,263.264c4.932,0.953,15.393,2.981,25.51,4.944
				c12.055-35.488,9.17-36.636,9.17-36.636s-2.559-1.425-5.789-2.688c-0.124-0.049-0.239-0.09-0.346-0.13
				c-1.63-0.595-1.975-0.684-4.16-1.32c-3.757-0.888-7.256-1.613-11.584-2.24c-0.278-0.041-0.556-0.081-0.826-0.114
				c-0.785-0.098-1.561-0.179-2.312-0.253c-0.507-0.057-1.013-0.09-1.494-0.122c-0.571-0.033-1.126-0.065-1.648-0.09
				c-2.79-0.138-4.784-0.098-4.784-0.098C247.14,246.665,246.074,253.026,243.942,263.264z"/>
			<path style="opacity:0.1;" d="M273.461,242.371c-0.997,4.993,0.058,9.145,0.75,11.131c2.117-6.938,3.32-11.683,3.971-14.929
				C276.229,238.318,274.145,238.952,273.461,242.371z"/>
			<polygon style="fill:#B55B52;" points="175.151,325.207 175.935,331.607 190.597,331.705 189.812,325.305 			"/>
			<path style="fill:#263238;" d="M177.923,332.143l0.71-7.22c0.026-0.263-0.13-0.493-0.376-0.555l-5.465-1.367
				c-0.567-0.142-1.161,0.314-1.211,0.921c-0.206,2.521-0.182,3.749-0.494,6.924c-0.192,1.953-0.67,4.788-0.935,7.486
				c-0.259,2.638,2.31,3.095,2.655,1.995c1.547-4.933,3.076-5.586,4.626-7.147C177.714,332.898,177.886,332.528,177.923,332.143z"/>
			<path style="fill:#407BFF;" d="M177.583,335.819c0.198-0.009,0.351-0.097,0.442-0.254c0.412-0.707-0.624-2.788-0.743-3.023
				c-0.027-0.054-0.085-0.086-0.145-0.082c-0.061,0.004-0.112,0.045-0.132,0.102c-0.275,0.821-0.664,2.294-0.175,2.941
				c0.048,0.064,0.103,0.118,0.165,0.163C177.15,335.779,177.347,335.83,177.583,335.819z M177.766,335.414
				c-0.027,0.046-0.074,0.099-0.196,0.105c-0.228,0.011-0.391-0.054-0.499-0.197c-0.264-0.349-0.221-1.197,0.107-2.304
				C177.568,333.863,177.983,335.041,177.766,335.414z"/>
			<path style="fill:#407BFF;" d="M179.233,334.542c0.14-0.013,0.387-0.092,0.47-0.47c0.053-0.243,0.005-0.469-0.143-0.673
				c-0.539-0.744-2.322-0.931-2.397-0.938c-0.053-0.005-0.105,0.018-0.136,0.061c-0.032,0.043-0.038,0.099-0.017,0.148
				c0.177,0.412,0.746,1.094,1.322,1.512C178.653,334.415,178.976,334.566,179.233,334.542z M179.316,333.576
				c0.096,0.133,0.126,0.274,0.092,0.431c-0.042,0.195-0.131,0.228-0.203,0.235c-0.437,0.042-1.376-0.789-1.786-1.444
				C178.008,332.891,178.993,333.13,179.316,333.576z"/>
			<path style="fill:#407BFF;" d="M262.718,266.902l-18.774-3.636c-9.055,8.78-5.026,17.912-13.38,54.741
				c-21.464,4.275-44.458,5.899-44.458,5.899l-0.014,9.199c0,0,25.75,3.287,48.934,0.403c3.531-0.439,6.763-2.2,8.994-4.971l0,0
				c1.182-1.469,2.046-3.164,2.533-4.986C252.999,299.446,262.718,266.902,262.718,266.902z"/>
			<path style="opacity:0.4;" d="M262.718,266.902l-18.774-3.636c-9.055,8.78-5.026,17.912-13.38,54.741
				c-21.464,4.275-44.458,5.899-44.458,5.899l-0.014,9.199c0,0,25.75,3.287,48.934,0.403c3.531-0.439,6.763-2.2,8.994-4.971l0,0
				c1.182-1.469,2.046-3.164,2.533-4.986C252.999,299.446,262.718,266.902,262.718,266.902z"/>
			<polygon style="fill:#407BFF;" points="185.818,334.168 185.836,322.682 189.138,322.524 190.125,335.503 			"/>
			<polygon style="fill:#B55B52;" points="243.465,410.151 249.824,410.62 251.713,396.016 245.354,395.547 			"/>
			<path style="fill:#263238;" d="M250.221,409.714h-7.148c-0.26,0-0.476,0.181-0.519,0.435l-0.96,5.656
				c-0.1,0.587,0.391,1.142,0.991,1.132c2.493-0.043,3.698-0.189,6.842-0.189c1.934,0,5.929,0.201,8.6,0.201
				c2.612,0,2.881-2.641,1.775-2.88c-4.959-1.072-6.883-2.551-8.527-3.962C250.978,409.851,250.602,409.714,250.221,409.714z"/>
			<path style="opacity:0.2;" d="M256.881,275.767c-8.153,6.288-8.699,30.25-8.512,41.075c4.146-15.133,9.049-31.969,11.916-41.711
				C259.504,274.472,258.38,274.61,256.881,275.767z"/>
			<path style="fill:#407BFF;" d="M269.069,268.207c0,0,1.588,50.353-1.969,69.319c-3.7,19.727-14.97,64.603-14.97,64.603
				l-9.173-1.184c0,0,5.801-45.333,8.263-64.934c2.685-21.369-0.833-71.422-0.833-71.422L269.069,268.207z"/>
			<path style="fill:#407BFF;" d="M254.135,410.437c0.212-0.186,0.311-0.432,0.291-0.732c-0.011-0.179-0.096-0.318-0.244-0.402
				c-0.762-0.434-3.341,0.864-3.633,1.014c-0.056,0.029-0.089,0.091-0.08,0.155c0.009,0.064,0.056,0.114,0.119,0.127
				c0.538,0.107,1.297,0.228,1.998,0.228C253.217,410.826,253.801,410.729,254.135,410.437z M254.034,409.565
				c0.059,0.033,0.086,0.081,0.091,0.159c0.013,0.205-0.048,0.364-0.188,0.486c-0.395,0.346-1.441,0.408-2.844,0.175
				C252.15,409.883,253.614,409.329,254.034,409.565z"/>
			<path style="fill:#407BFF;" d="M250.679,410.589c0.776-0.346,2.315-1.725,2.2-2.444c-0.027-0.168-0.146-0.376-0.557-0.418
				c-0.042-0.004-0.084-0.006-0.124-0.006c-1.423,0-1.717,2.6-1.729,2.714c-0.006,0.054,0.018,0.106,0.061,0.138
				c0.026,0.019,0.057,0.029,0.089,0.029C250.639,410.602,250.66,410.597,250.679,410.589z M252.29,408.027
				c0.268,0.027,0.285,0.132,0.29,0.166c0.069,0.431-0.978,1.514-1.77,1.987c0.113-0.646,0.475-2.157,1.392-2.157
				C252.232,408.022,252.261,408.024,252.29,408.027z"/>
			<path style="fill:#263238;" d="M243.807,261.704l-1.525,2.048c-0.118,0.159,0.062,0.379,0.357,0.436l26.754,5.181
				c0.23,0.045,0.439-0.03,0.477-0.171l0.605-2.226c0.042-0.154-0.135-0.326-0.387-0.375l-25.834-5.003
				C244.064,261.557,243.883,261.601,243.807,261.704z"/>
			<path style="fill:#407BFF;" d="M246.803,265.248l-0.692-0.134c-0.138-0.027-0.231-0.118-0.207-0.202l0.812-2.887
				c0.024-0.085,0.156-0.132,0.294-0.105l0.692,0.134c0.138,0.027,0.231,0.118,0.207,0.202l-0.812,2.887
				C247.072,265.227,246.94,265.274,246.803,265.248z"/>
			<path style="fill:#407BFF;" d="M264.274,268.673l-0.692-0.134c-0.138-0.027-0.231-0.118-0.207-0.202l0.812-2.887
				c0.024-0.084,0.156-0.132,0.294-0.105l0.692,0.134c0.138,0.027,0.231,0.118,0.207,0.202l-0.812,2.887
				C264.544,268.652,264.412,268.699,264.274,268.673z"/>
			<path style="opacity:0.4;" d="M269.069,268.207c0,0,1.588,50.353-1.969,69.319c-3.7,19.727-14.97,64.603-14.97,64.603
				l-9.173-1.184c0,0,5.801-45.333,8.263-64.934c2.685-21.369-0.833-71.422-0.833-71.422L269.069,268.207z"/>
			<polygon style="fill:#407BFF;" points="254.08,402.652 241.006,400.965 241.168,397.858 255.391,398.478 			"/>
			<g>
				<path style="fill:#B55B52;" d="M279.528,232.339c1.503,1.152,3.128,2.406,4.741,3.556c1.615,1.177,3.239,2.341,4.895,3.451
					c1.657,1.109,3.325,2.192,5.012,3.228c0.842,0.524,1.697,1.014,2.547,1.514c0.423,0.257,0.855,0.483,1.284,0.723l0.645,0.356
					l0.314,0.174c0.025,0.009,0.034,0.028,0.068,0.041c0.227,0.134,0.872,0.256,1.621,0.25c0.755-0.002,1.617-0.102,2.499-0.269
					c1.774-0.331,3.639-0.874,5.492-1.505c1.864-0.618,3.729-1.34,5.577-2.124c1.856-0.751,3.723-1.596,5.527-2.414l1.982,3.251
					c-3.438,2.538-7.013,4.696-10.893,6.606c-1.949,0.93-3.966,1.786-6.193,2.421c-1.116,0.313-2.287,0.574-3.586,0.702
					c-1.296,0.114-2.752,0.132-4.463-0.45c-0.21-0.069-0.43-0.169-0.642-0.258l-0.375-0.172l-0.733-0.338
					c-0.487-0.228-0.982-0.446-1.458-0.689c-0.965-0.468-1.918-0.958-2.853-1.47c-1.883-1.008-3.721-2.077-5.507-3.219
					c-3.611-2.267-7.012-4.645-10.374-7.421L279.528,232.339z"/>
			</g>
			<g>
				<path style="fill:#B55B52;" d="M319.042,240.484l2.776-4.538l3.451,3.238c0,0-1.957,4.826-5.363,3.353L319.042,240.484z"/>
				<polygon style="fill:#B55B52;" points="323.954,234.713 327.376,236.66 325.268,239.185 321.818,235.947 				"/>
			</g>
			<path style="fill:#407BFF;" d="M274.153,230.488c5.072-0.313,10.938,3.023,13.631,5.433l-3.113,12.352
				c0,0-11.488-6.421-11.905-9.938C272.331,234.673,272.235,230.607,274.153,230.488z"/>
			<path style="opacity:0.7;fill:#FFFFFF;" d="M274.153,230.488c5.072-0.313,10.938,3.023,13.631,5.433l-3.113,12.352
				c0,0-11.488-6.421-11.905-9.938C272.331,234.673,272.235,230.607,274.153,230.488z"/>
		</g>
	</g>
</g>
</svg>
